<svg width="478" height="416" viewBox="0 0 478 416" fill="none" xmlns="http://www.w3.org/2000/svg">
<path d="M109.225 350.867C106.903 349.046 104.615 347.164 102.359 345.219C86.259 331.332 72.913 313.779 65.2817 293.847C51.0682 256.723 65.5112 210.608 99.0075 189.89C114.275 180.447 131.33 173.144 143.545 159.994C165.932 135.892 166.659 100.437 177.004 70.8187C189.109 36.1643 214.417 20.2458 250.844 19.8463C295.175 19.3601 350.327 43.5221 374.823 82.1419C428.515 166.794 417.698 281.653 339.638 347.402C272.777 403.716 177.373 404.311 109.225 350.867Z" fill="#E8C5E6"/>
<path d="M465.313 264.593L448.739 270.311C448.739 270.311 446.718 254.395 443.612 255.465C440.507 256.536 434.221 275.318 434.221 275.318L444.184 304.17L475.277 293.445C477.385 292.717 478.505 290.419 477.777 288.312L470.449 267.092C469.721 264.985 467.421 263.867 465.313 264.593Z" fill="#CFA2D6"/>
<path d="M431.597 308.513L441.248 305.184L431.284 276.333L421.634 279.662L431.597 308.513Z" fill="#CFA2D6"/>
<path d="M23.962 240.185C17.5232 240.099 12.2378 245.254 12.1654 251.689L12.1636 252.032L11.8213 252.025C5.38247 251.926 0.0860451 257.069 0.00104744 263.505C-0.0842796 269.928 5.05434 275.205 11.4807 275.295L34.0514 275.604C34.6566 275.613 35.1538 275.129 35.162 274.524L35.4498 251.966C35.5308 245.543 30.3884 240.271 23.962 240.185Z" fill="#CFA2D6"/>
<path d="M435.801 87.5332C436.111 84.6928 435.814 81.2971 434.913 77.6083C436.973 77.3383 439 77.2669 440.98 77.3932C440.291 81.1785 438.501 84.7225 435.801 87.5332ZM411.378 90.6688C412.595 89.1147 413.996 87.6495 415.571 86.2875C417.725 89.4111 420.063 91.8871 422.388 93.5443C418.496 93.6892 414.661 92.6696 411.378 90.6688ZM407.466 60.2838C407.158 63.1198 407.453 66.5112 408.352 70.1967C406.286 70.4656 404.261 70.5369 402.291 70.4107C402.981 66.6297 404.769 63.0913 407.466 60.2838ZM431.899 57.1526C430.677 58.7122 429.275 60.1785 427.701 61.5372C425.545 58.4093 423.206 55.931 420.879 54.2716C424.774 54.1278 428.612 55.1496 431.899 57.1526ZM414.789 76.975C414.216 75.6964 413.717 74.4342 413.288 73.1995C415.648 72.6112 417.978 71.809 420.238 70.7959C422.513 69.7763 424.663 68.5712 426.657 67.2114C427.293 68.3517 427.905 69.5634 428.477 70.8409C429.052 72.1185 429.55 73.3806 429.98 74.6153C425.288 75.7853 420.653 77.8585 416.613 80.6078C415.975 79.4664 415.363 78.2536 414.789 76.975ZM413.587 55.9739C416.001 54.8917 420.549 57.9966 424.615 63.9155C420.921 66.4585 416.597 68.4011 412.184 69.4833C410.469 62.5129 411.174 57.0549 413.587 55.9739ZM403.689 81.9501C402.571 79.4554 402.017 76.8488 401.973 74.2751C404.403 74.4364 406.906 74.3322 409.45 73.959C409.959 75.4659 410.562 77.0025 411.259 78.5565C411.956 80.1106 412.704 81.5835 413.49 82.9653C411.52 84.6149 409.778 86.4137 408.281 88.3355C406.387 86.5904 404.808 84.4437 403.689 81.9501ZM429.68 91.8432C427.266 92.9253 422.719 89.8205 418.653 83.9015C422.396 81.33 426.718 79.3961 431.081 78.3294C432.8 85.3019 432.094 90.7621 429.68 91.8432ZM439.58 65.8658C440.698 68.3594 441.25 70.965 441.295 73.5398C438.854 73.3784 436.35 73.4816 433.818 73.8547C433.308 72.3489 432.705 70.8124 432.008 69.2594C431.311 67.7053 430.564 66.2324 429.778 64.8506C431.743 63.2076 433.484 61.4088 434.987 59.4804C436.882 61.2266 438.46 63.3723 439.58 65.8658ZM412.004 52.4453C400.162 57.7518 394.848 71.697 400.158 83.5316C405.468 95.3662 419.421 100.678 431.262 95.3717C443.106 90.0652 448.42 76.1189 443.109 64.2843C437.801 52.4497 423.846 47.1376 412.004 52.4453Z" fill="#CFA2D6"/>
<path d="M51.9711 80.8058L52.126 89.5102C52.132 89.8373 52.3482 90.1238 52.6613 90.2192L60.9928 92.7622C61.6932 92.9762 61.7109 93.9596 61.0185 94.1978L52.7823 97.036C52.4731 97.1424 52.2675 97.4366 52.2731 97.7636L52.4284 106.469C52.4412 107.2 51.5104 107.522 51.0694 106.937L45.824 99.985C45.6271 99.7249 45.284 99.6195 44.9746 99.726L36.7384 102.563C36.0461 102.802 35.4532 102.015 35.8732 101.417L40.8673 94.2834C41.0552 94.0145 41.0487 93.6567 40.8514 93.3944L35.606 86.4437C35.165 85.8599 35.73 85.0521 36.4301 85.2661L44.7619 87.8091C45.075 87.9045 45.4143 87.7882 45.6022 87.5193L50.5963 80.3854C51.0158 79.7861 51.9578 80.0737 51.9711 80.8058Z" fill="#CFA2D6"/>
<path d="M241.227 23.3063C239.569 24.146 238.453 25.6243 238.014 27.2903L222.925 26.6834C222.818 26.3081 222.676 25.936 222.492 25.5738C222.36 25.3137 222.207 25.0711 222.046 24.8374L230.589 12.1665C232.121 12.6823 233.851 12.6087 235.407 11.8218C238.487 10.2622 239.719 6.5043 238.159 3.42574C236.599 0.348278 232.837 -0.883152 229.758 0.675335C226.679 2.23382 225.447 5.99285 227.006 9.07141C227.13 9.31506 227.272 9.54332 227.421 9.76283L218.861 22.4602C217.341 21.963 215.631 22.0453 214.092 22.8245C211.012 24.383 209.78 28.142 211.34 31.2206C212.9 34.2981 216.661 35.5295 219.741 33.9699C221.176 33.2433 222.203 32.0371 222.74 30.6477L238.284 31.2721C238.344 31.4159 238.404 31.5608 238.475 31.7024C240.036 34.7799 243.796 36.0113 246.876 34.4528C249.956 32.8943 251.187 29.1353 249.628 26.0568C248.068 22.9793 244.307 21.7479 241.227 23.3063Z" fill="#CFA2D6"/>
<path d="M445.168 405.364C445.168 411.239 354.845 416.001 243.423 416.001C132.002 416.001 41.6777 411.239 41.6777 405.364C41.6777 399.49 132.002 394.727 243.423 394.727C354.845 394.727 445.168 399.49 445.168 405.364Z" fill="#E8C5E6"/>
<path d="M267.055 403.524L408.431 403.685C414.474 403.692 419.377 398.802 419.385 392.763L419.694 122.265C419.7 116.226 414.808 111.324 408.766 111.318L267.39 111.157C261.347 111.15 256.443 116.039 256.436 122.078L256.127 392.576C256.12 398.615 261.013 403.516 267.055 403.524Z" fill="#3F225E"/>
<path d="M255.651 403.508L397.029 403.669C403.072 403.676 407.974 398.786 407.982 392.748L408.29 122.249C408.297 116.21 403.405 111.31 397.362 111.302L255.985 111.141C249.943 111.134 245.04 116.024 245.032 122.064L244.724 392.561C244.717 398.6 249.609 403.501 255.651 403.508Z" fill="#7A3EA3"/>
<path d="M401.288 126.548L401.002 375.55C401.002 376.217 400.483 376.758 399.836 376.758L252.904 376.59C252.258 376.589 251.741 376.047 251.742 375.38L252.027 126.379C252.028 125.711 252.545 125.178 253.192 125.179L400.123 125.347C400.77 125.348 401.288 125.882 401.288 126.548Z" fill="#FCD773"/>
<path d="M316.241 396.732L336.454 396.755C339.817 396.759 342.546 394.036 342.551 390.676C342.554 387.314 339.832 384.586 336.468 384.582L316.255 384.559C312.892 384.556 310.163 387.277 310.158 390.639C310.154 394 312.878 396.727 316.241 396.732Z" fill="#3F225E"/>
<path d="M275.779 376.615L252.904 376.59C252.258 376.589 251.741 376.047 251.742 375.38L251.764 355.756L256.13 346.529L285.072 340.327L272.931 316.318L271.636 313.758L286.68 281.964H289.617V275.757L360.806 125.302L394.681 125.34L275.779 376.615Z" fill="#FDE499"/>
<path d="M312.594 376.658L302.128 376.646L288.889 376.631L401.273 139.128L401.223 184.051L401.216 189.369L312.594 376.658Z" fill="#FDE499"/>
<path d="M349.378 133.058L303.922 133.006C301.722 133.004 299.756 131.314 299.528 129.199L298.713 121.627C298.467 119.343 300.162 117.463 302.502 117.465L350.834 117.52C353.174 117.523 354.864 119.407 354.614 121.691L353.78 129.26C353.548 131.374 351.579 133.061 349.378 133.058Z" fill="#7A3EA3"/>
<path d="M48.4902 323.335H221.365V126.513H48.4902V323.335Z" fill="#EDEDEB"/>
<path d="M54.6211 292.066H215.228V146.996H54.6211V292.066Z" fill="#A3212E"/>
<path d="M70.237 305.603C70.237 309.913 66.7422 313.405 62.4302 313.405C58.1183 313.405 54.623 309.913 54.623 305.603C54.623 301.294 58.1183 297.801 62.4302 297.801C66.7422 297.801 70.237 301.294 70.237 305.603Z" fill="#F14257"/>
<path d="M90.5937 305.603C90.5937 309.913 87.0982 313.405 82.7858 313.405C78.4743 313.405 74.9795 309.913 74.9795 305.603C74.9795 301.294 78.4743 297.801 82.7858 297.801C87.0982 297.801 90.5937 301.294 90.5937 305.603Z" fill="#F14257"/>
<path d="M110.947 305.603C110.947 309.913 107.451 313.405 103.139 313.405C98.8275 313.405 95.332 309.913 95.332 305.603C95.332 301.294 98.8275 297.801 103.139 297.801C107.451 297.801 110.947 301.294 110.947 305.603Z" fill="#F14257"/>
<path d="M67.448 137.194C67.448 138.563 67.022 139.83 66.2954 140.867C65.1324 142.525 63.2162 143.606 61.0375 143.606C58.8587 143.606 56.9417 142.525 55.7787 140.867C55.0529 139.83 54.627 138.563 54.627 137.194C54.627 133.657 57.4937 130.787 61.0375 130.787C64.5811 130.787 67.448 133.657 67.448 137.194Z" fill="#F14257"/>
<path d="M61.0371 138.121C58.8583 138.121 56.9361 139.208 55.7783 140.867C56.9413 142.525 58.8583 143.606 61.0371 143.606C63.2158 143.606 65.132 142.525 66.295 140.867C65.1376 139.208 63.2158 138.121 61.0371 138.121Z" fill="#A3212E"/>
<path d="M61.0374 137.637C62.5516 137.637 63.7789 136.41 63.7789 134.896C63.7789 133.384 62.5516 132.157 61.0374 132.157C59.5227 132.157 58.2949 133.384 58.2949 134.896C58.2949 136.41 59.5227 137.637 61.0374 137.637Z" fill="#A3212E"/>
<path d="M105.069 139.008H71.9349C71.1778 139.008 70.5635 138.394 70.5635 137.638C70.5635 136.882 71.1778 136.268 71.9349 136.268H105.069C105.826 136.268 106.44 136.882 106.44 137.638C106.44 138.394 105.826 139.008 105.069 139.008Z" fill="#A3212E"/>
<path d="M119.661 143.606H71.9349C71.1778 143.606 70.5635 142.993 70.5635 142.236C70.5635 141.479 71.1778 140.866 71.9349 140.866H119.661C120.418 140.866 121.032 141.479 121.032 142.236C121.032 142.993 120.418 143.606 119.661 143.606Z" fill="#A3212E"/>
<path d="M97.3457 281.963H289.617V63.058H97.3457V281.963Z" fill="white"/>
<path d="M104.165 247.188H282.792V85.8402H104.165V247.188Z" fill="#F9AC13"/>
<path d="M121.535 262.243C121.535 267.036 117.648 270.921 112.852 270.921C108.056 270.921 104.169 267.036 104.169 262.243C104.169 257.45 108.056 253.565 112.852 253.565C117.648 253.565 121.535 257.45 121.535 262.243Z" fill="#F9AC13"/>
<path d="M144.173 262.243C144.173 267.036 140.285 270.921 135.49 270.921C130.694 270.921 126.807 267.036 126.807 262.243C126.807 257.45 130.694 253.565 135.49 253.565C140.285 253.565 144.173 257.45 144.173 262.243Z" fill="#F9AC13"/>
<path d="M166.811 262.243C166.811 267.036 162.923 270.921 158.128 270.921C153.333 270.921 149.445 267.036 149.445 262.243C149.445 257.45 153.333 253.565 158.128 253.565C162.923 253.565 166.811 257.45 166.811 262.243Z" fill="#F9AC13"/>
<path d="M118.431 74.9376C118.431 76.461 117.956 77.8691 117.149 79.0226C115.855 80.8675 113.724 82.0693 111.3 82.0693C108.878 82.0693 106.746 80.8675 105.451 79.0226C104.644 77.8691 104.171 76.461 104.171 74.9376C104.171 71.0052 107.359 67.8114 111.3 67.8114C115.241 67.8114 118.431 71.0052 118.431 74.9376Z" fill="#F9AC13"/>
<path d="M111.302 75.9693C108.879 75.9693 106.741 77.1777 105.453 79.0226C106.748 80.8675 108.879 82.0693 111.302 82.0693C113.726 82.0693 115.857 80.8675 117.151 79.0226C115.863 77.1777 113.726 75.9693 111.302 75.9693Z" fill="#F57D1F"/>
<path d="M111.301 75.4297C112.985 75.4297 114.35 74.0655 114.35 72.3819C114.35 70.6993 112.985 69.3351 111.301 69.3351C109.616 69.3351 108.251 70.6993 108.251 72.3819C108.251 74.0655 109.616 75.4297 111.301 75.4297Z" fill="#F57D1F"/>
<path d="M160.273 76.9551H123.421C122.578 76.9551 121.896 76.2735 121.896 75.4317C121.896 74.5899 122.578 73.9083 123.421 73.9083H160.273C161.114 73.9083 161.797 74.5899 161.797 75.4317C161.797 76.2735 161.114 76.9551 160.273 76.9551Z" fill="#F57D1F"/>
<path d="M176.501 82.0693H123.421C122.578 82.0693 121.896 81.3878 121.896 80.5449C121.896 79.7042 122.578 79.0215 123.421 79.0215H176.501C177.344 79.0215 178.027 79.7042 178.027 80.5449C178.027 81.3878 177.344 82.0693 176.501 82.0693Z" fill="#F57D1F"/>
<path d="M240.327 146.36C238.82 147.301 237.017 147.641 235.261 147.933C214.62 151.356 193.382 151.198 172.788 147.477C169.388 146.865 165.847 146.081 163.199 143.854C160.551 141.626 159.173 137.51 161.062 134.616C162.483 132.437 165.555 130.944 165.294 128.358C165.154 126.913 163.921 125.772 163.673 124.34C163.412 122.822 164.322 121.33 165.421 120.249C166.527 119.169 167.857 118.319 168.822 117.117C171.64 113.609 170.523 108.535 169.91 104.08C169.217 99.0718 169.405 93.9562 170.396 89.0031C173.608 72.955 184.794 57.751 201.909 55.5955C208.608 54.7526 215.591 56.1431 221.44 59.4807C223.437 60.6221 225.302 61.9875 226.979 63.5712C227.683 64.2385 228.351 64.9431 228.983 65.6784C234.235 71.8202 236.829 80.2635 235.505 88.2381C234.297 95.5037 230.093 102.897 232.694 109.791C233.678 112.395 235.541 114.549 237.091 116.868C238.639 119.186 239.919 121.912 239.494 124.662C238.985 127.97 236.081 131.023 237.096 134.209C238.092 137.323 242.441 138.7 242.804 141.954C243.005 143.72 241.839 145.419 240.327 146.36Z" fill="#0F0D18"/>
<path d="M83.238 144.589C83.238 144.589 70.4909 122.254 72.1052 120.802C73.7185 119.351 80.8177 128.704 80.8177 128.704C80.8177 128.704 72.2939 110.694 75.413 109.353C78.5997 107.982 85.2158 126.447 85.2158 126.447C85.2158 126.447 77.9138 104.354 81.0604 103.225C84.2066 102.096 91.1459 125.399 91.1459 125.399C91.1459 125.399 88.227 106.109 90.9032 105.806C95.8647 105.24 97.9215 140.558 97.9215 140.558L83.238 144.589Z" fill="#F89F95"/>
<path d="M97.9243 140.557C97.9243 140.557 106.779 124.632 104.783 122.697C102.786 120.762 95.2832 129.953 95.2832 129.953L97.9243 140.557Z" fill="#F89F95"/>
<path d="M324.225 114.507C324.225 114.507 336.972 92.1711 335.359 90.7202C333.745 89.2692 326.646 98.6223 326.646 98.6223C326.646 98.6223 335.17 80.612 332.051 79.2708C328.864 77.9 322.249 96.3647 322.249 96.3647C322.249 96.3647 329.549 74.2715 326.403 73.1422C323.257 72.0139 316.319 95.3166 316.319 95.3166C316.319 95.3166 319.237 76.0265 316.56 75.7225C311.599 75.1583 309.542 110.475 309.542 110.475L324.225 114.507Z" fill="#F89F95"/>
<path d="M309.54 110.475C309.54 110.475 300.685 94.5506 302.682 92.6146C304.679 90.6796 312.182 99.8725 312.182 99.8725L309.54 110.475Z" fill="#F89F95"/>
<path d="M169.947 139.732L167.743 187.967C167.743 187.967 159.138 223.583 132.975 224.84C119.365 225.496 105.014 203.828 94.3739 182.882C93.6326 181.419 92.9045 179.961 92.2061 178.518C91.4649 177.006 90.7489 175.501 90.0559 174.019C89.3454 172.508 88.6657 171.015 88.0101 169.559C81.7967 155.787 77.9102 144.862 77.9102 144.862C88.3131 136.668 101.862 138.173 101.862 138.173C101.862 138.173 105.397 146.288 110.103 156.279C110.753 157.668 111.434 159.101 112.126 160.546C112.769 161.892 113.431 163.252 114.099 164.618C114.823 166.093 115.551 167.568 116.285 169.031C122.638 181.685 129.282 193.363 132.045 193.072C138.033 192.446 152.615 145.208 169.947 139.732Z" fill="#F14257"/>
<path d="M112.125 160.546C110.237 161.189 107.995 161.232 105.87 161.165C99.7304 160.971 97.2705 166.53 93.8212 170.627C92.6671 171.999 91.4163 173.14 90.0556 174.02C89.3451 172.508 88.6654 171.016 88.0098 169.559C88.3733 169.298 88.7313 168.988 89.0904 168.636C92.4848 165.287 94.434 160.753 98.5642 158.112C100.24 157.038 102.117 156.419 104.097 156.297C105.494 156.212 108.299 156.843 110.103 156.279C110.753 157.669 111.434 159.102 112.125 160.546Z" fill="white"/>
<path d="M116.283 169.03C114.754 169.309 113.09 169.321 111.492 169.273C105.358 169.078 102.899 174.632 99.4498 178.736C97.931 180.538 96.2541 181.94 94.3719 182.881C93.6306 181.418 92.9025 179.96 92.2041 178.517C93.0541 178.129 93.892 177.558 94.7189 176.745C98.1133 173.394 100.056 168.86 104.192 166.214C105.862 165.145 107.739 164.526 109.725 164.405C110.739 164.344 112.512 164.66 114.097 164.617C114.821 166.092 115.549 167.567 116.283 169.03Z" fill="white"/>
<path d="M234.518 247.188H148.839C150.175 242.235 151.669 236.797 153.169 231.37C153.618 229.75 154.067 228.136 154.517 226.533C155.3 223.705 156.078 220.919 156.826 218.248C157.232 216.804 157.627 215.39 158.01 214.024C158.046 213.896 158.082 213.762 158.118 213.635C158.252 213.174 158.38 212.712 158.507 212.263C158.944 210.716 159.358 209.234 159.752 207.844C159.923 207.239 160.086 206.655 160.244 206.085C160.299 205.903 160.348 205.721 160.396 205.539C160.797 204.118 161.168 202.825 161.495 201.665C161.672 201.041 161.836 200.452 161.987 199.912L162.023 199.779C162.74 197.241 163.165 195.76 163.165 195.76L163.195 195.487L163.415 193.691L163.699 191.36L163.962 189.187L164.179 187.39L164.466 185.041L164.726 182.887L164.939 181.097L165.479 176.592L165.698 174.796L165.777 174.147L166.245 170.287L166.463 168.496L167.004 163.993L167.222 162.195L167.769 157.692L167.987 155.895L168.534 151.392L168.746 149.589L169.099 146.682L169.293 145.086L169.512 143.289L169.943 139.732L172.61 139.077L177.778 137.801L184.888 136.048V136.042L190.014 134.779L190.331 134.803L209.194 136.23L209.406 136.248L211.228 136.995V137.001L216.086 138.998L219.815 140.533L228.391 144.066L228.615 144.157C228.852 144.691 229.083 145.225 229.301 145.76C229.696 146.724 230.054 147.701 230.383 148.672C230.54 149.134 230.686 149.595 230.832 150.056C231.014 150.639 231.184 151.227 231.336 151.811C231.627 152.866 231.876 153.916 232.088 154.967C232.174 155.367 232.253 155.773 232.325 156.175C232.435 156.775 232.538 157.37 232.63 157.965L232.659 158.19C232.866 159.61 233.017 161.018 233.115 162.415C233.163 163.034 233.201 163.646 233.225 164.254C233.292 165.788 233.297 167.294 233.254 168.781C233.237 169.406 233.206 170.031 233.17 170.645C233.085 172.223 232.945 173.764 232.757 175.27C232.683 175.877 232.599 176.472 232.513 177.067L232.501 177.158C232.332 178.291 232.138 179.403 231.931 180.489C231.84 180.951 231.749 181.412 231.651 181.861C231.584 182.177 231.518 182.486 231.451 182.796C231.378 183.129 231.3 183.457 231.221 183.785C230.825 185.46 230.388 187.051 229.945 188.55C229.745 189.212 229.538 189.861 229.337 190.486C228.754 192.271 228.166 193.885 227.613 195.305C227.333 196.003 227.066 196.652 226.812 197.253C225.554 200.221 224.619 201.921 224.619 201.921L224.655 202.091L225.044 203.881L226.015 208.312L226.404 210.091L226.605 211.019L227.371 214.509L227.758 216.288V216.3L228.725 220.694L229.112 222.472L229.659 224.967L230.072 226.867L230.461 228.645L230.856 230.447L231.421 233.021L231.809 234.8L232.762 239.163L233.151 240.948L234.518 247.188Z" fill="#0EAFB9"/>
<path d="M219.82 140.537C210.34 141.38 200.786 141.307 191.294 140.737C185.051 140.36 178.832 139.765 172.613 139.079L177.781 137.805C188.373 138.868 199.031 139.564 209.677 139.292C211.814 139.237 213.959 139.141 216.091 139L219.82 140.537Z" fill="#3CBEC4"/>
<path d="M229.305 145.76C227.628 146.028 225.947 146.264 224.263 146.464C213.325 147.782 202.272 147.787 191.293 147.126C183.945 146.677 176.614 145.937 169.297 145.086L169.514 143.29C171.847 143.563 174.179 143.824 176.517 144.067C187.527 145.202 198.606 145.967 209.676 145.681C215.943 145.518 222.205 145.019 228.393 144.067L228.618 144.158C228.856 144.692 229.085 145.227 229.305 145.76Z" fill="#3CBEC4"/>
<path d="M231.338 151.813C228.988 152.226 226.631 152.572 224.262 152.857C213.325 154.174 202.272 154.18 191.292 153.519C183.689 153.057 176.109 152.274 168.536 151.394L168.749 149.592C171.336 149.901 173.924 150.187 176.516 150.454C187.527 151.594 198.605 152.353 209.675 152.073C216.768 151.886 223.849 151.272 230.834 150.058C231.016 150.641 231.186 151.231 231.338 151.813Z" fill="#3CBEC4"/>
<path d="M232.631 157.966C229.856 158.488 227.069 158.907 224.262 159.247C213.324 160.564 202.273 160.569 191.292 159.903C183.434 159.429 175.599 158.616 167.771 157.693L167.99 155.896C170.832 156.23 173.674 156.552 176.516 156.843C187.526 157.985 198.605 158.743 209.675 158.458C217.272 158.264 224.864 157.572 232.328 156.176C232.437 156.776 232.54 157.371 232.631 157.966Z" fill="#3CBEC4"/>
<path d="M233.226 164.254C230.257 164.819 227.269 165.275 224.262 165.638C213.324 166.955 202.272 166.962 191.292 166.294C183.172 165.803 175.083 164.947 167.006 163.994L167.224 162.197C170.321 162.567 173.418 162.913 176.516 163.234C187.526 164.376 198.604 165.134 209.675 164.849C217.54 164.649 225.398 163.908 233.117 162.416C233.166 163.035 233.202 163.648 233.226 164.254Z" fill="#3CBEC4"/>
<path d="M233.26 168.782C233.241 169.407 233.21 170.032 233.174 170.645C230.223 171.216 227.254 171.665 224.265 172.029C213.327 173.34 202.274 173.352 191.295 172.685C182.92 172.181 174.582 171.282 166.249 170.288L166.469 168.496C169.814 168.897 173.166 169.28 176.519 169.626C187.529 170.761 198.607 171.526 209.678 171.24C217.591 171.039 225.498 170.288 233.26 168.782Z" fill="#3CBEC4"/>
<path d="M232.759 175.272C232.68 175.909 232.595 176.534 232.504 177.159C229.771 177.669 227.02 178.082 224.263 178.415C213.325 179.733 202.273 179.745 191.292 179.077C182.663 178.556 174.069 177.62 165.482 176.595L165.701 174.798C169.302 175.229 172.909 175.642 176.517 176.018C187.527 177.153 198.605 177.918 209.676 177.632C217.419 177.433 225.155 176.716 232.759 175.272Z" fill="#3CBEC4"/>
<path d="M231.656 181.861C231.522 182.517 231.376 183.154 231.224 183.785C228.91 184.186 226.591 184.526 224.264 184.805C213.326 186.122 202.274 186.128 191.294 185.467C182.415 184.926 173.566 183.955 164.73 182.886L164.942 181.096C168.799 181.557 172.656 182.006 176.518 182.407C187.528 183.543 198.607 184.307 209.677 184.021C217.044 183.834 224.41 183.172 231.656 181.861Z" fill="#3CBEC4"/>
<path d="M229.948 188.552C229.747 189.214 229.541 189.863 229.341 190.488C227.652 190.762 225.957 190.992 224.263 191.198C213.325 192.515 202.273 192.522 191.293 191.86C182.153 191.302 173.056 190.294 163.964 189.19L164.182 187.392C168.288 187.89 172.399 188.37 176.517 188.795C187.527 189.936 198.605 190.701 209.676 190.416C216.466 190.239 223.249 189.663 229.948 188.552Z" fill="#3CBEC4"/>
<path d="M227.617 195.307C227.338 196.005 227.071 196.655 226.816 197.255C225.966 197.377 225.116 197.486 224.265 197.589C213.327 198.907 202.275 198.912 191.294 198.251C181.9 197.68 172.541 196.624 163.2 195.489L163.419 193.693C167.78 194.227 172.146 194.736 176.519 195.186C187.529 196.327 198.607 197.085 209.678 196.8C215.678 196.648 221.677 196.181 227.617 195.307Z" fill="#3CBEC4"/>
<path d="M225.046 203.882C224.785 203.919 224.524 203.949 224.262 203.98C213.325 205.297 202.273 205.302 191.292 204.635C181.326 204.034 171.403 202.881 161.498 201.667C161.674 201.041 161.838 200.453 161.99 199.913C166.83 200.501 171.67 201.078 176.516 201.576C187.527 202.716 198.605 203.476 209.675 203.19C214.68 203.063 219.684 202.716 224.658 202.092L225.046 203.882Z" fill="#3CBEC4"/>
<path d="M226.407 210.093C225.691 210.196 224.98 210.287 224.263 210.373C213.325 211.684 202.273 211.696 191.293 211.027C180.744 210.391 170.243 209.14 159.756 207.848C159.925 207.241 160.09 206.658 160.247 206.087C165.665 206.755 171.088 207.41 176.517 207.969C187.527 209.103 198.605 209.87 209.676 209.583C215.142 209.444 220.602 209.043 226.019 208.314L226.407 210.093Z" fill="#3CBEC4"/>
<path d="M227.762 216.288C226.596 216.458 225.43 216.616 224.264 216.756C213.326 218.073 202.273 218.085 191.294 217.417C180.162 216.744 169.078 215.384 158.013 214.025C158.183 213.43 158.347 212.84 158.511 212.265C164.505 213.005 170.505 213.733 176.518 214.358C187.528 215.493 198.606 216.259 209.677 215.973C215.598 215.821 221.513 215.365 227.374 214.51L227.762 216.288Z" fill="#3CBEC4"/>
<path d="M229.117 222.475C227.502 222.728 225.886 222.953 224.264 223.148C213.327 224.465 202.274 224.471 191.294 223.809C180.029 223.124 168.818 221.746 157.619 220.368C156.465 220.223 156.453 218.402 157.619 218.548C163.911 219.318 170.208 220.095 176.519 220.751C187.529 221.885 198.607 222.65 209.677 222.365C216.055 222.202 222.43 221.685 228.728 220.696L229.117 222.475Z" fill="#3CBEC4"/>
<path d="M230.466 228.647C228.407 228.991 226.336 229.29 224.264 229.538C213.327 230.856 202.274 230.862 191.294 230.2C180.029 229.515 168.818 228.136 157.619 226.752C156.465 226.613 156.453 224.792 157.619 224.932C163.911 225.709 170.208 226.486 176.519 227.141C187.529 228.276 198.607 229.041 209.677 228.755C216.509 228.579 223.342 227.997 230.077 226.869L230.466 228.647Z" fill="#3CBEC4"/>
<path d="M231.813 234.802C229.312 235.257 226.791 235.627 224.264 235.931C213.327 237.248 202.274 237.255 191.294 236.592C180.029 235.907 168.818 234.528 157.619 233.146C156.465 233.006 156.453 231.184 157.619 231.324C163.911 232.101 170.208 232.878 176.519 233.528C187.529 234.668 198.607 235.427 209.677 235.142C216.965 234.954 224.253 234.31 231.424 233.024L231.813 234.802Z" fill="#3CBEC4"/>
<path d="M233.156 240.949C230.21 241.508 227.247 241.963 224.264 242.321C213.327 243.638 202.274 243.644 191.294 242.976C180.029 242.297 168.818 240.918 157.619 239.535C156.465 239.396 156.453 237.575 157.619 237.715C163.911 238.492 170.208 239.269 176.519 239.917C187.529 241.058 198.607 241.817 209.677 241.532C217.421 241.331 225.164 240.615 232.767 239.165L233.156 240.949Z" fill="#3CBEC4"/>
<path d="M328.029 114.805C328.029 114.805 324.902 126.143 320.395 140.23C319.812 142.033 319.211 143.884 318.592 145.766C318.251 146.785 317.912 147.818 317.558 148.855C316.97 150.615 316.363 152.388 315.743 154.167V154.172C309.281 172.684 301.55 191.251 295.823 193.618C284.006 198.498 227.859 181.752 227.859 181.752L228.619 144.157C244.761 150.773 279.014 164.423 281.534 163.168C282.367 162.755 285.287 156.478 288.839 148.242C289.508 146.688 290.2 145.067 290.898 143.404C291.39 142.239 291.894 141.049 292.392 139.848C293.035 138.306 293.685 136.74 294.335 135.167C300.239 120.893 305.911 106.508 305.911 106.508C305.911 106.508 323.62 110.24 328.029 114.805Z" fill="#F14257"/>
<path d="M317.559 148.855C316.97 150.615 316.364 152.388 315.744 154.167C313.855 151.97 311.857 150.172 308.214 150.148C303.44 150.118 298.854 151.951 294.063 150.901C292.126 150.469 290.359 149.584 288.871 148.272L288.84 148.243C289.509 146.688 290.2 145.067 290.899 143.405L291.057 143.575C295.266 148.048 300.932 145.857 306.276 145.396C310.648 145.014 314.445 146.021 317.559 148.855Z" fill="white"/>
<path d="M320.393 140.232C319.81 142.034 319.209 143.885 318.59 145.768C316.324 143.017 314.313 140.469 309.966 140.438C305.199 140.407 300.614 142.24 295.821 141.191C294.595 140.924 293.446 140.474 292.39 139.85C293.033 138.308 293.683 136.742 294.333 135.169C298.33 137.852 303.31 136.098 308.029 135.686C312.93 135.26 317.096 136.571 320.393 140.232Z" fill="white"/>
<path d="M188.236 209.003C188.236 209.605 188.236 210.212 188.229 210.819C188.224 212.331 188.217 213.853 188.198 215.39C188.193 215.996 188.186 216.603 188.181 217.211L188.175 217.471C188.157 218.898 188.132 220.33 188.102 221.774C188.096 222.066 188.09 222.363 188.084 222.661C188.077 222.971 188.071 223.286 188.06 223.595C188.029 225.106 187.992 226.63 187.938 228.154C187.926 228.755 187.907 229.361 187.883 229.968C187.883 230.199 187.871 230.436 187.864 230.666C187.823 231.947 187.773 233.235 187.719 234.526C187.701 234.975 187.682 235.425 187.665 235.874C187.658 236.031 187.653 236.19 187.64 236.348C187.58 237.859 187.506 239.376 187.427 240.893C187.397 241.495 187.367 242.102 187.331 242.708C187.252 244.202 187.161 245.695 187.063 247.188H146.271L150.807 231.941L152.374 226.691L154.912 218.169L156.303 213.482L157.239 210.351L157.87 208.221L161.186 197.095L161.332 196.61L168.898 146.627L169.944 139.732L172.61 139.077L184.888 136.042V136.048C184.895 136.127 184.986 136.965 185.126 138.47C185.175 139.004 185.229 139.617 185.296 140.309C185.406 141.584 185.539 143.126 185.685 144.909C185.727 145.492 185.776 146.105 185.831 146.742C185.891 147.574 185.958 148.449 186.031 149.365C186.073 150.003 186.122 150.658 186.17 151.337C186.213 151.932 186.256 152.546 186.304 153.17C186.402 154.621 186.505 156.156 186.608 157.759C186.644 158.359 186.681 158.967 186.717 159.585C186.808 161.06 186.899 162.597 186.99 164.18C187.021 164.781 187.051 165.389 187.081 166.001C187.167 167.488 187.245 169.024 187.312 170.596C187.349 171.197 187.374 171.804 187.403 172.416C187.47 173.916 187.537 175.446 187.598 177.005C187.622 177.607 187.646 178.22 187.671 178.832C187.725 180.332 187.78 181.861 187.828 183.415C187.847 184.016 187.864 184.623 187.883 185.235C187.931 186.741 187.974 188.27 188.011 189.818C188.023 190.419 188.041 191.026 188.047 191.639C188.084 193.144 188.114 194.668 188.138 196.216C188.15 196.817 188.157 197.423 188.162 198.036C188.186 199.542 188.205 201.071 188.211 202.613C188.217 203.219 188.224 203.826 188.224 204.433C188.236 205.945 188.236 207.468 188.236 209.003Z" fill="#F14257"/>
<path d="M239.924 247.188H208.708C208.659 245.925 208.617 244.651 208.58 243.377C208.556 242.769 208.538 242.162 208.525 241.556C208.477 240.038 208.441 238.514 208.404 236.985C208.393 236.378 208.379 235.771 208.374 235.164C208.338 233.641 208.312 232.117 208.295 230.593C208.288 229.993 208.277 229.386 208.271 228.785C208.271 228.578 208.265 228.373 208.265 228.165C208.252 226.843 208.241 225.519 208.234 224.202V223.103C208.234 222.866 208.228 222.629 208.234 222.394C208.222 220.864 208.216 219.34 208.222 217.818C208.222 217.211 208.222 216.603 208.228 216.002V215.098C208.234 213.872 208.246 212.646 208.259 211.426C208.259 210.959 208.265 210.497 208.271 210.036C208.271 209.897 208.271 209.751 208.277 209.611C208.288 208.076 208.307 206.553 208.331 205.035C208.338 204.428 208.35 203.821 208.362 203.214C208.386 201.679 208.41 200.154 208.441 198.643C208.453 198.036 208.472 197.43 208.484 196.822C208.513 195.281 208.55 193.758 208.592 192.246C208.605 191.639 208.623 191.038 208.641 190.438C208.684 188.889 208.726 187.36 208.775 185.856C208.792 185.248 208.811 184.641 208.83 184.04C208.883 182.493 208.933 180.963 208.988 179.464C209.012 178.85 209.036 178.244 209.06 177.643C209.114 176.089 209.176 174.565 209.236 173.073C209.26 172.459 209.285 171.846 209.315 171.245C209.382 169.686 209.449 168.156 209.516 166.675C209.546 166.056 209.571 165.449 209.601 164.848C209.673 163.276 209.747 161.753 209.819 160.278C209.855 159.659 209.886 159.052 209.916 158.45C210.001 156.848 210.08 155.325 210.16 153.874C210.196 153.249 210.232 152.648 210.268 152.054C210.299 151.465 210.335 150.888 210.366 150.324C210.426 149.322 210.481 148.375 210.536 147.472C210.572 146.84 210.609 146.233 210.645 145.65C210.76 143.865 210.858 142.324 210.942 141.062C210.991 140.376 211.034 139.768 211.07 139.247C211.161 137.863 211.221 137.086 211.228 137.001V136.995L216.086 138.998L219.816 140.533L228.391 144.066L228.615 144.157C229.308 145.663 229.921 147.161 230.461 148.66C231.196 150.682 231.791 152.697 232.278 154.693C234.598 164.235 234.258 173.327 232.957 180.902C232.83 181.654 232.69 182.388 232.544 183.105C230.334 194.049 226.326 201.332 226.326 201.332L229.435 211.827L231.111 217.483H231.118L233.796 226.527L235.629 232.718L239.924 247.188Z" fill="#F14257"/>
<path d="M183.659 218.881C185.221 218.59 186.721 218.086 188.178 217.473C188.154 219.191 188.123 220.921 188.087 222.663C186.745 223.141 185.366 223.512 183.939 223.731C179.755 224.367 175.552 223.574 171.544 222.365C166.613 220.873 160.467 218.081 154.916 218.171L156.307 213.485C160.078 213.668 163.947 214.687 167.469 215.877C172.613 217.625 178.115 219.914 183.659 218.881Z" fill="white"/>
<path d="M231.115 217.483C223.869 214.551 215.932 213.799 208.231 215.097C208.244 213.404 208.256 211.71 208.273 210.036C215.367 208.997 222.624 209.64 229.438 211.827L231.115 217.483Z" fill="white"/>
<path d="M183.66 231.949C185.111 231.677 186.508 231.221 187.869 230.668C187.809 232.398 187.742 234.134 187.668 235.876C186.46 236.289 185.221 236.605 183.94 236.799C179.756 237.437 175.552 236.647 171.545 235.433C165.35 233.557 157.248 229.63 150.812 231.944L152.378 226.693C157.327 226.043 162.708 227.331 167.47 228.944C172.613 230.692 178.115 232.981 183.66 231.949Z" fill="white"/>
<path d="M235.632 232.721C227.263 228.034 217.589 226.597 208.267 228.167C208.248 226.474 208.236 224.787 208.236 223.105C216.879 221.844 225.77 223.069 233.798 226.528L235.632 232.721Z" fill="white"/>
<path d="M232.958 180.903V180.902C234.258 173.328 234.599 164.236 232.278 154.695C232.464 154.517 232.726 154.417 232.984 154.417C233.344 154.417 233.694 154.612 233.812 155.062C235.977 163.314 235.906 172.067 233.598 180.281C233.496 180.646 233.242 180.843 232.958 180.903Z" fill="#EE252B"/>
<path d="M232.757 180.924C232.21 180.924 231.649 180.478 231.84 179.797C234.061 171.889 234.139 163.492 232.054 155.546C231.96 155.187 232.071 154.893 232.277 154.695C234.597 164.236 234.257 173.328 232.957 180.902V180.903C232.892 180.917 232.824 180.924 232.757 180.924Z" fill="#EE252B"/>
<path d="M157.871 208.222C157.358 208.162 156.91 207.744 157.144 207.131C158.431 203.755 159.78 200.403 161.193 197.078L161.187 197.095L157.872 208.221L157.871 208.222Z" fill="#EE252B"/>
<path d="M157.996 208.229C157.955 208.229 157.912 208.226 157.87 208.221L157.871 208.22L161.187 197.094L161.192 197.078C163.599 191.409 166.189 185.819 168.956 180.316C169.12 179.989 169.385 179.854 169.657 179.854C170.258 179.854 170.89 180.516 170.529 181.235C169.235 183.807 167.985 186.401 166.771 189.011C168.754 187.973 170.77 186.997 172.818 186.09C172.975 186.02 173.141 185.983 173.303 185.983C173.603 185.983 173.888 186.116 174.065 186.417C174.293 186.807 174.188 187.463 173.739 187.663C170.934 188.903 168.19 190.271 165.509 191.758C163.148 196.974 160.941 202.261 158.9 207.614C158.737 208.043 158.363 208.229 157.996 208.229Z" fill="#EE252B"/>
<path d="M230.293 102.576C229.264 109.983 226.472 114.493 222.673 117.703C220.344 119.675 218.244 121.017 216.439 122.255C211.883 125.403 209.154 127.921 209.154 138.368C206.069 146.13 194.188 147.179 190.367 138.368C190.535 124.563 187.197 113.15 185.287 107.759C184.7 106.102 184.238 105.01 184.048 104.59C183.986 104.443 183.965 104.381 183.965 104.381C183.965 104.381 184.007 102.157 184.175 98.8844C184.195 98.486 184.216 98.0667 184.238 97.6464C184.657 89.989 185.644 77.9678 187.953 73.7302C196.433 58.2057 226.263 63.4925 228.593 75.8495C230.797 87.6183 231.216 96.1779 230.293 102.576Z" fill="#F89F95"/>
<path d="M231.902 86.3973C227.995 79.8922 222.804 74.161 216.715 69.6293C215.6 73.7483 212.87 77.571 209.302 79.9131C205.735 82.2563 201.297 83.2408 197.072 82.6284C196.703 87.3982 194.445 91.9969 190.896 95.2071C187.347 98.4185 182.544 100.207 177.758 100.1C179.655 90.0971 181.88 79.4203 186.376 70.2834C187.344 68.3177 188.39 66.3488 189.924 64.7848C192.822 61.8292 197.1 60.6745 201.219 60.2685C209.01 59.5024 217.336 61.1783 223.243 66.3125C228.796 71.1406 232.916 79.1119 231.902 86.3973Z" fill="#0F0D18"/>
<path d="M219.695 90.2034C222.098 88.5318 225.22 88.6284 227.484 90.5853C227.908 90.9519 227.982 91.6894 227.66 92.1658C227.33 92.6531 226.706 92.7343 226.28 92.3677C225.35 91.5643 224.167 91.201 223.01 91.2866C222.427 91.3305 221.848 91.4864 221.311 91.7531C220.835 91.9902 220.374 92.4006 219.839 92.0944C219.711 92.0209 219.602 91.9122 219.515 91.7838C219.218 91.3426 219.238 90.5206 219.695 90.2034Z" fill="#0F0D18"/>
<path d="M212.239 90.2034C209.484 88.5318 205.905 88.6284 203.309 90.5853C202.822 90.9519 202.738 91.6894 203.107 92.1658C203.484 92.6531 204.2 92.7343 204.688 92.3677C205.753 91.5643 207.112 91.2175 208.434 91.3053C209.104 91.3503 209.766 91.5039 210.384 91.764C210.93 91.9934 211.466 92.3984 212.074 92.0933C212.22 92.0209 212.345 91.9122 212.444 91.7838C212.785 91.3426 212.762 90.5206 212.239 90.2034Z" fill="#0F0D18"/>
<path d="M216.237 108.558C217.28 108.558 218.367 108.328 219.414 107.777C219.903 107.522 220.091 106.918 219.834 106.43C219.577 105.942 218.973 105.753 218.485 106.01C215.953 107.337 213.132 105.973 212.326 104.869C212.001 104.425 211.376 104.324 210.929 104.65C210.483 104.976 210.387 105.601 210.712 106.046C211.661 107.344 213.834 108.558 216.237 108.558Z" fill="#D85954"/>
<path d="M218.597 102.872C218.706 102.872 218.805 102.801 218.837 102.692C219.311 101.061 218.756 100.507 218.208 100.33C217.651 100.152 216.985 100.296 216.227 100.763C216.109 100.835 216.073 100.989 216.146 101.107C216.219 101.224 216.374 101.259 216.489 101.188C217.115 100.802 217.643 100.673 218.053 100.805C218.545 100.963 218.648 101.553 218.357 102.553C218.319 102.684 218.395 102.823 218.528 102.862L218.597 102.872Z" fill="#D85954"/>
<path d="M224.829 97.3291C224.829 98.4695 223.904 99.3936 222.763 99.3936C221.622 99.3936 220.697 98.4695 220.697 97.3291C220.697 96.1888 221.622 95.2658 222.763 95.2658C223.904 95.2658 224.829 96.1888 224.829 97.3291Z" fill="#040606"/>
<path d="M224.191 96.3499C224.191 96.6838 223.92 96.9551 223.586 96.9551C223.251 96.9551 222.979 96.6838 222.979 96.3499C222.979 96.015 223.251 95.7437 223.586 95.7437C223.92 95.7437 224.191 96.015 224.191 96.3499Z" fill="white"/>
<path d="M210.518 97.3291C210.518 98.4695 209.592 99.3936 208.452 99.3936C207.311 99.3936 206.387 98.4695 206.387 97.3291C206.387 96.1888 207.311 95.2658 208.452 95.2658C209.592 95.2658 210.518 96.1888 210.518 97.3291Z" fill="#040606"/>
<path d="M209.882 96.3499C209.882 96.6838 209.611 96.9551 209.276 96.9551C208.942 96.9551 208.671 96.6838 208.671 96.3499C208.671 96.015 208.942 95.7437 209.276 95.7437C209.611 95.7437 209.882 96.015 209.882 96.3499Z" fill="white"/>
<path d="M177.421 104.93C179.979 107.978 184.015 108.804 186.436 106.775C188.857 104.747 188.746 100.631 186.188 97.582C183.63 94.5353 179.595 93.7089 177.174 95.7371C174.754 97.7664 174.864 101.882 177.421 104.93Z" fill="#F89F95"/>
<path d="M178.844 97.2288C179.931 96.6537 181.381 96.68 182.72 97.3034C183.388 97.6129 183.872 97.9894 184.203 98.4558C184.64 99.0715 184.762 99.8464 184.519 100.475C184.304 101.041 183.853 101.407 183.455 101.731C183.167 101.966 182.894 102.186 182.74 102.451C182.504 102.857 182.563 103.425 182.879 103.773C183.195 104.12 183.756 104.233 184.183 104.036C184.434 103.919 184.73 104.03 184.846 104.279C184.961 104.53 184.853 104.827 184.602 104.943C184.328 105.07 184.03 105.13 183.732 105.13C183.139 105.13 182.544 104.89 182.139 104.445C181.533 103.777 181.422 102.726 181.878 101.947C182.122 101.527 182.495 101.224 182.824 100.956C183.154 100.688 183.466 100.435 183.587 100.117C183.708 99.8003 183.63 99.3755 183.387 99.0331C183.289 98.8948 183.156 98.7697 183.008 98.6501C182.511 98.6457 181.89 98.7982 181.577 99.1407C181.223 99.5281 181.056 100.089 181.141 100.604C181.186 100.876 181.001 101.133 180.729 101.178L180.648 101.184C180.407 101.184 180.195 101.011 180.156 100.766C180.019 99.9441 180.275 99.0847 180.839 98.4668C181.049 98.2385 181.312 98.0827 181.587 97.9565C180.76 97.7337 179.944 97.7776 179.311 98.1123C178.53 98.525 177.939 99.5907 178.341 100.459C178.456 100.709 178.347 101.006 178.097 101.122C177.846 101.237 177.55 101.129 177.434 100.878C176.849 99.6126 177.495 97.9422 178.844 97.2288Z" fill="#D85954"/>
<path d="M294.025 89.468C290.246 82.6863 281.677 80.2586 274.899 84.0484L274.54 84.2525L274.341 83.8903C270.576 77.101 262.011 74.6557 255.227 78.4323C248.455 82.2012 246.019 90.7422 249.785 97.5128L263.019 121.291C263.375 121.929 264.18 122.159 264.818 121.803L288.597 108.553C295.366 104.78 297.796 96.2364 294.025 89.468Z" fill="#F14257"/>
<path d="M291.314 32.851C285.849 29.947 279.064 32.0279 276.17 37.4957L276.016 37.7877L275.727 37.6307C270.268 34.7157 263.477 36.7824 260.572 42.2436C257.671 47.6951 259.74 54.4635 265.192 57.3665L284.343 67.5559C284.857 67.8292 285.495 67.6349 285.768 67.1213L295.945 47.9705C298.842 42.5169 296.769 35.7496 291.314 32.851Z" fill="#F14257"/>
<path d="M332.026 31.2603C331.137 27.3564 327.245 24.9177 323.342 25.8154L323.135 25.8648L323.088 25.6563C322.205 21.7513 318.32 19.3038 314.414 20.1939C310.517 21.0818 308.077 24.9583 308.962 28.8545L312.076 42.5374C312.159 42.9039 312.525 43.1344 312.892 43.0499L326.581 39.9242C330.478 39.0341 332.916 35.1554 332.026 31.2603Z" fill="#F14257"/>
<path d="M65.1321 333.611C61.2825 329.881 58.3896 324.836 57.997 319.266C57.6041 313.696 60.054 307.657 64.7052 304.722C69.3557 301.788 76.0554 302.787 78.8649 307.439C75.5256 303.96 73.2499 299.172 73.3692 294.139C73.4889 289.105 76.2969 283.944 80.734 281.858C85.1705 279.774 90.9864 281.448 93.04 285.913C95.0342 275.901 99.9792 266.447 107.015 259.199C109.225 256.921 111.697 254.82 114.579 253.691C117.461 252.564 120.823 252.532 123.342 254.221C127.334 256.901 127.985 262.755 127.54 267.809C126.751 276.788 123.702 285.626 118.784 293.178C122.966 291.692 127.766 290.255 131.47 292.537C134.68 294.515 135.995 298.954 135.181 302.864C134.367 306.772 131.759 310.129 128.67 312.544C125.581 314.959 122.012 316.557 118.481 318.127C122.018 316.978 126.008 317.772 128.783 320.175C131.557 322.58 133.035 326.524 132.597 330.359C132.087 334.825 129.143 338.791 125.503 341.276C121.863 343.76 117.588 344.94 113.353 345.663C100.345 347.887 86.6168 346.247 74.9563 340.332C71.4212 338.539 68.0165 336.404 65.1321 333.611Z" fill="#0EAFB9"/>
<path d="M113.83 266.957C93.8218 294.758 87.7567 329.065 82.1868 362.101C81.7882 364.469 85.4154 365.488 85.8184 363.1C91.3367 330.37 97.2558 296.404 117.082 268.857C118.499 266.888 115.234 265.007 113.83 266.957Z" fill="#089DA8"/>
<path d="M113.499 326.745C105.372 328.549 97.4615 331.063 89.7832 334.28C87.5814 335.203 88.5478 338.846 90.7847 337.91C98.462 334.692 106.373 332.179 114.499 330.373C116.865 329.849 115.863 326.219 113.499 326.745Z" fill="#089DA8"/>
<path d="M95.9893 308.403C93.0891 303.226 91.2233 297.755 90.291 291.9C89.911 289.516 86.2816 290.527 86.6594 292.9C87.64 299.053 89.6947 304.869 92.7377 310.302C93.9215 312.415 97.1753 310.521 95.9893 308.403Z" fill="#089DA8"/>
<path d="M103.241 336.338C107.765 333.06 111.508 328.242 112.766 322.456C114.023 316.668 112.433 309.916 108.108 306.061C103.784 302.204 96.7534 302.14 93.1558 306.561C97.1169 303.461 100.187 298.809 100.836 293.501C101.485 288.193 99.3945 282.304 95.1589 279.377C90.9244 276.45 84.6978 277.24 81.9041 281.589C81.3923 270.739 77.7642 259.986 71.6536 251.202C69.7339 248.442 67.5187 245.823 64.7326 244.159C61.9464 242.495 58.4997 241.902 55.6561 243.258C51.1459 245.409 49.5814 251.451 49.2618 256.836C48.6943 266.399 50.4707 276.192 54.3619 284.943C50.2961 282.687 45.5895 280.381 41.4362 282.162C37.8384 283.705 35.8077 288.151 36.044 292.393C36.2799 296.635 38.4433 300.595 41.2445 303.646C44.0451 306.696 47.4649 308.967 50.8478 311.205C47.3933 309.409 43.1748 309.579 39.9584 311.644C36.742 313.709 34.6198 317.608 34.4813 321.708C34.3191 326.485 36.7347 331.143 40.0905 334.356C43.4454 337.571 47.6537 339.52 51.8915 340.985C64.9038 345.484 79.2487 346.043 92.1258 341.767C96.0297 340.47 99.8513 338.794 103.241 336.338Z" fill="#3CBEC4"/>
<path d="M62.6239 255.26C61.8883 252.962 58.251 253.944 58.9927 256.26C70.5968 292.503 77.5139 330.112 79.5168 368.115C79.6431 370.524 83.4098 370.54 83.2824 368.115C81.2618 329.787 74.327 291.815 62.6239 255.26Z" fill="#089DA8"/>
<path d="M77.9627 329.294C68.237 324.925 58.0821 321.844 47.5457 320.179C45.1752 319.805 44.1543 323.431 46.5445 323.808C56.7385 325.419 66.646 328.313 76.0623 332.544C78.2552 333.528 80.172 330.286 77.9627 329.294Z" fill="#089DA8"/>
<path d="M87.1513 291.073C82.2513 296.101 77.8213 301.524 73.8495 307.313C72.4755 309.315 75.7374 311.199 77.1011 309.212C80.894 303.685 85.1362 298.534 89.8144 293.735C91.5055 291.998 88.8458 289.333 87.1513 291.073Z" fill="#089DA8"/>
<path d="M111.073 404.536H59.798L54.3496 351.583H116.521L111.073 404.536Z" fill="#F14257"/>
<path d="M111.073 404.536H93.1473L102.195 362.907L54.3496 351.583H116.521L116.067 355.987L111.073 404.536Z" fill="#EF3443"/>
<path d="M341.798 239.658H277.453C274.744 239.658 272.548 241.853 272.548 244.56V279.649C272.548 282.355 274.744 284.549 277.453 284.549H279.855L290.597 295.823L289.419 284.549H341.798C344.507 284.549 346.702 282.355 346.702 279.649V244.56C346.702 241.853 344.507 239.658 341.798 239.658Z" fill="#F14257"/>
<path d="M307.918 250.487C304.495 247.067 298.944 247.072 295.529 250.5L295.348 250.683L295.167 250.5C291.751 247.072 286.201 247.067 282.779 250.487C279.361 253.902 279.36 259.436 282.775 262.853L294.766 274.85C295.088 275.171 295.609 275.171 295.93 274.85L307.922 262.853C311.335 259.436 311.334 253.902 307.918 250.487Z" fill="white"/>
<path d="M328.691 273.198C327.007 273.198 325.335 272.979 323.674 272.541C322.037 272.08 320.63 271.434 319.453 270.604L321.668 266.313C322.59 266.982 323.651 267.513 324.851 267.905C326.073 268.297 327.307 268.493 328.553 268.493C329.959 268.493 331.067 268.216 331.874 267.663C332.681 267.109 333.085 266.337 333.085 265.345C333.085 264.722 332.923 264.168 332.6 263.684C332.277 263.2 331.701 262.831 330.871 262.577C330.063 262.323 328.922 262.196 327.445 262.196H321.252L322.498 248.565H337.271V253.063H324.505L327.411 250.502L326.546 260.224L323.64 257.664H328.76C331.159 257.664 333.085 257.999 334.538 258.667C336.014 259.313 337.087 260.201 337.755 261.331C338.424 262.462 338.759 263.742 338.759 265.172C338.759 266.602 338.401 267.928 337.686 269.15C336.971 270.35 335.864 271.33 334.365 272.091C332.889 272.829 330.997 273.198 328.691 273.198Z" fill="white"/>
<path d="M325.192 189.194H376.27C378.42 189.194 380.163 190.936 380.163 193.085V220.938C380.163 223.087 378.42 224.83 376.27 224.83H374.362L365.836 233.779L366.771 224.83H325.192C323.042 224.83 321.298 223.087 321.298 220.938V193.085C321.298 190.936 323.042 189.194 325.192 189.194Z" fill="#F14257"/>
<path d="M349.636 197.79C346.92 195.074 342.514 195.079 339.801 197.8L339.657 197.946L339.516 197.8C336.803 195.079 332.396 195.074 329.681 197.79C326.968 200.5 326.967 204.893 329.677 207.605L339.196 217.129C339.451 217.384 339.866 217.384 340.121 217.129L349.64 207.605C352.35 204.893 352.348 200.5 349.636 197.79Z" fill="white"/>
<path d="M365.828 215.626C364.491 215.626 363.164 215.453 361.846 215.105C360.527 214.738 359.41 214.226 358.495 213.567L360.225 210.161C360.958 210.692 361.809 211.113 362.779 211.424C363.75 211.736 364.729 211.891 365.718 211.891C366.835 211.891 367.714 211.672 368.355 211.232C368.996 210.793 369.316 210.188 369.316 209.419C369.316 208.687 369.032 208.11 368.465 207.689C367.897 207.268 366.981 207.058 365.718 207.058H363.686V204.119L369.041 198.049L369.536 199.642H359.456V196.072H372.914V198.956L367.586 205.025L365.334 203.734H366.624C368.986 203.734 370.772 204.265 371.98 205.327C373.188 206.389 373.793 207.753 373.793 209.419C373.793 210.5 373.509 211.516 372.941 212.468C372.374 213.402 371.504 214.162 370.332 214.748C369.16 215.333 367.659 215.626 365.828 215.626Z" fill="white"/>
<path d="M213.262 395.905L195.798 404.728L179.235 371.981L196.701 363.158L213.262 395.905Z" fill="#3CBEC4"/>
<path d="M206.052 381.65L180.498 374.476L197.962 365.654L206.052 381.65Z" fill="#30BABE"/>
<path d="M199.209 365.022L176.069 376.711L170.983 366.654L194.124 354.966L199.209 365.022Z" fill="#3CBEC4"/>
<path d="M178.072 358.222L159.984 367.361C157.951 368.387 155.472 367.573 154.444 365.542L141.392 339.735C140.365 337.703 141.18 335.224 143.212 334.198L161.3 325.061C163.333 324.033 165.813 324.848 166.84 326.879L179.893 352.685C180.919 354.718 180.105 357.196 178.072 358.222Z" fill="#3CBEC4"/>
<path d="M158.127 367.805C157.165 367.805 156.226 367.468 155.484 366.851C156.226 367.468 157.165 367.805 158.126 367.805C158.752 367.805 159.387 367.662 159.983 367.361C159.387 367.662 158.752 367.805 158.127 367.805Z" fill="#ADBFE7"/>
<path d="M158.126 367.805C157.165 367.805 156.226 367.468 155.484 366.851C155.073 366.51 154.723 366.083 154.463 365.58C154.456 365.567 154.449 365.555 154.443 365.542L147.33 351.478C147.758 351.623 148.21 351.698 148.665 351.698C149.288 351.698 149.921 351.557 150.515 351.257L168.603 342.12C170.635 341.093 171.45 338.614 170.423 336.583L164.483 324.839C165.4 325.15 166.211 325.779 166.727 326.672C166.727 326.672 166.727 326.672 166.728 326.673C166.731 326.679 166.736 326.686 166.739 326.692C166.74 326.694 166.74 326.695 166.74 326.695C166.744 326.702 166.748 326.709 166.752 326.715C166.753 326.718 166.754 326.72 166.755 326.722C166.758 326.726 166.761 326.731 166.763 326.735C166.764 326.737 166.766 326.741 166.768 326.744C166.77 326.747 166.772 326.752 166.774 326.756C166.777 326.76 166.78 326.766 166.783 326.771C166.784 326.775 166.786 326.778 166.788 326.781C166.791 326.785 166.792 326.788 166.794 326.792C166.796 326.795 166.797 326.798 166.798 326.801C166.8 326.804 166.803 326.808 166.805 326.812C166.808 326.818 166.81 326.823 166.814 326.83C166.816 326.832 166.817 326.835 166.819 326.838C166.82 326.843 166.822 326.846 166.825 326.85C166.826 326.853 166.828 326.856 166.829 326.859C166.832 326.866 166.836 326.872 166.839 326.879L179.892 352.685C180.193 353.281 180.335 353.914 180.335 354.539C180.336 356.045 179.508 357.497 178.071 358.222L159.983 367.361C159.387 367.662 158.752 367.805 158.126 367.805Z" fill="#30BABE"/>
<path d="M285.073 340.327L189.553 360.796L166.034 314.293L239.171 249.564L285.073 340.327Z" fill="#3CBEC4"/>
<path d="M189.553 360.796L166.034 314.293L166.274 314.082L177.723 336.721L272.931 316.319L285.073 340.327L256.131 346.529L251.774 347.462L244.774 348.962L189.553 360.796Z" fill="#30BABE"/>
<path d="M280.086 285.871C292.762 310.934 294.995 335.315 285.074 340.327C275.153 345.338 256.835 329.084 244.159 304.02C231.484 278.957 229.251 254.576 239.172 249.564C249.093 244.553 267.411 260.808 280.086 285.871Z" fill="#3CBEC4"/>
<path d="M283.245 336.705C276.935 339.899 266.463 332.691 256.724 319.598C253.12 314.747 249.61 309.095 246.462 302.861C243.942 297.881 241.852 292.933 240.206 288.194C234.261 271.009 234.222 256.605 241.004 253.178C249.653 248.812 266.116 263.967 277.781 287.037C289.448 310.108 291.894 332.337 283.245 336.705Z" fill="#0EAFB9"/>
<path d="M271.097 292.659C275.538 301.695 271.806 312.621 262.765 317.058C261.615 317.623 260.437 318.056 259.235 318.365C255.631 313.514 252.121 307.861 248.973 301.628C246.453 296.647 244.363 291.7 242.717 286.961C243.89 285.947 245.217 285.05 246.682 284.331C255.724 279.894 266.651 283.612 271.097 292.659Z" fill="#3CBEC4"/>
<path d="M199.568 361.19L171.494 370.091L147.836 323.314L171.656 306.001L199.568 361.19Z" fill="#0EAFB9"/>
</svg>
