<svg width="514" height="340" viewBox="0 0 514 340" fill="none" xmlns="http://www.w3.org/2000/svg">
<g filter="url(#filter0_b_7087_278)">
<path d="M442.486 333.532C442.486 333.532 465.278 308.767 460.726 282.572C456.174 256.375 424.325 249.972 434.102 227.932C447.338 198.093 535.79 157.152 508.963 75.6863C494.906 32.9992 397.444 -26.7996 297.817 20.4658C243.873 46.059 274.315 116.453 256.061 132.601C237.807 148.749 163.374 160.393 130.557 212.118C97.7398 263.843 108.414 333.532 108.414 333.532H442.486Z" fill="white" fill-opacity="0.16"/>
</g>
<path d="M483.35 245.496C481.517 250.805 474.372 253.167 467.391 250.772C460.41 248.378 456.238 242.132 458.071 236.823C459.905 231.514 467.05 229.152 474.031 231.546C481.011 233.942 485.184 240.187 483.35 245.496Z" fill="#EDF6FF"/>
<path d="M90.873 257.585C92.7067 252.276 88.534 246.031 81.553 243.636C74.572 241.241 67.4263 243.603 65.5926 248.912C63.759 254.222 67.9317 260.467 74.9127 262.862C81.8936 265.257 89.0393 262.894 90.873 257.585Z" fill="#EDF6FF"/>
<path d="M268.716 22.9087C270.549 17.5996 266.377 11.3541 259.396 8.95914C252.415 6.56416 245.269 8.92654 243.435 14.2356C241.602 19.5448 245.774 25.7902 252.755 28.1851C259.736 30.5801 266.882 28.2178 268.716 22.9087Z" fill="#EDF6FF"/>
<path d="M473.913 213.15C472.919 216.028 469.046 217.309 465.262 216.01C461.477 214.712 459.216 211.326 460.21 208.449C461.204 205.571 465.077 204.29 468.861 205.588C472.645 206.887 474.907 210.272 473.913 213.15Z" fill="#EDF6FF"/>
<path d="M231.95 132.35C230.956 135.228 227.083 136.509 223.299 135.21C219.515 133.912 217.253 130.527 218.247 127.649C219.241 124.771 223.114 123.49 226.898 124.789C230.681 126.087 232.944 129.472 231.95 132.35Z" fill="#EDF6FF"/>
<path d="M91.8151 307.538C90.8209 310.415 86.948 311.696 83.1639 310.398C79.3798 309.1 77.118 305.714 78.1122 302.836C79.1064 299.958 82.9792 298.677 86.7634 299.976C90.5475 301.274 92.8084 304.66 91.8151 307.538Z" fill="#EDF6FF"/>
<path d="M390.765 317.457C390.765 317.457 381.511 328.765 386.762 332.184C392.013 335.602 421.301 342.176 423.148 339.284C424.118 337.765 416.88 333.343 412.33 328.729C408.217 324.558 406.789 320.087 406.789 320.087L390.765 317.457Z" fill="#1D0908"/>
<path d="M246.046 263.456C246.046 263.456 236.298 252.569 232.084 257.198C227.87 261.829 216.747 289.62 219.323 291.893C220.676 293.087 226.197 286.659 231.484 282.907C236.263 279.514 240.919 278.813 240.919 278.813L246.046 263.456Z" fill="#1D0908"/>
<path d="M315.321 219.629C315.321 219.629 296.499 265.386 290.166 267.49C283.834 269.594 246.084 263.795 246.084 263.795C246.084 263.795 238.45 271.698 240.034 278.535C240.034 278.535 288.232 304.307 315.321 292.736C342.411 281.166 353.756 252.239 353.756 252.239L398.451 268.017C398.451 268.017 390.767 304.307 390.767 317.457C390.767 317.457 399.932 324.294 406.791 320.087C407.32 317.457 436.344 272.751 431.594 255.921C426.845 239.09 383.572 222.786 383.572 222.786L315.321 219.629Z" fill="#337EFF"/>
<path opacity="0.7" d="M415.512 238.826C401.473 229.533 383.57 222.788 383.57 222.788L371.008 222.206L315.318 219.632C315.318 219.632 313.156 224.887 310.053 231.915C315.322 235.584 332.046 244.962 356.049 236.683C355.394 242.629 354.197 249.91 352.007 256.048C353.184 253.685 353.753 252.24 353.753 252.24L377.214 260.522L372.428 244.793L415.512 238.826Z" fill="#43274D"/>
<path d="M332.861 74.3619C332.861 74.3619 322.32 91.5285 315.759 94.8859C309.198 98.2442 298.345 102.02 298.345 110.537C298.345 119.055 304.108 125.262 303.622 131.27C303.136 137.278 297.535 153.143 323.675 150.73C340.765 149.152 338.565 160.655 351.201 158.094C363.837 155.533 384.543 141.813 384.692 126.075C384.839 110.337 375.649 35.9644 332.861 74.3619Z" fill="#B40500"/>
<path d="M369.174 125.946C369.489 126.538 369.798 127.048 369.976 127.273C369.976 127.273 369.928 127.302 369.833 127.367C368.407 128.356 367.455 129.02 366.237 129.435C365.476 129.696 364.614 129.867 363.467 129.951C360.418 130.17 357.558 129.667 355.489 127.207C358.402 124.245 358.051 120.904 357.421 117.077C357.397 116.923 357.373 116.798 357.361 116.727C357.361 116.721 357.361 116.721 357.361 116.721V116.715C357.236 115.944 357.099 115.263 357.04 114.522C359.637 114.564 363.906 114.742 366.1 114.884C367.609 114.973 368.145 115.009 368.917 115.056C368.947 115.056 368.976 115.062 369 115.062C369.113 115.068 369.232 115.08 369.363 115.086C369.6 115.104 369.862 115.121 370.183 115.145H370.225C370.011 115.466 369.797 115.797 369.594 116.129C368.114 118.564 367.198 121.266 368.227 123.961C368.419 124.476 368.805 125.253 369.174 125.946Z" fill="#FEB3B0"/>
<path d="M370.192 115.131C370.192 115.137 370.186 115.137 370.186 115.143C369.979 115.473 369.779 115.798 369.598 116.128C368.116 118.565 367.203 121.264 368.228 123.963C368.422 124.474 368.804 125.253 369.173 125.945C363.169 126.987 360.298 121.364 357.371 116.732L357.365 116.726C357.365 116.72 357.365 116.72 357.365 116.72C357.359 116.714 357.353 116.707 357.353 116.707C357.353 116.701 357.359 116.701 357.359 116.707C356.846 116.009 356.671 115.336 357.008 114.52H357.039C361.005 114.613 364.957 114.825 368.916 115.056C368.947 115.056 368.979 115.062 369.004 115.062C369.129 115.068 369.248 115.074 369.367 115.087C369.642 115.1 369.917 115.112 370.192 115.131Z" fill="#FF96A3"/>
<path d="M360.053 46.4512C360.028 46.5582 359.995 46.6653 359.963 46.7723C358.419 51.5346 358.841 55.2034 358.841 55.2034C358.841 55.2034 349.853 60.7142 345.479 54.4054C345.479 54.4054 341.236 50.7614 342.26 48.0967C343.159 45.785 343.308 41.8366 348.004 39.8876C348.722 39.5833 349.539 39.3285 350.48 39.1392C357.47 37.7157 361.341 41.8207 360.053 46.4512Z" fill="#B40500"/>
<path opacity="0.7" d="M359.963 46.7714C358.419 51.5337 358.841 55.2025 358.841 55.2025C358.841 55.2025 349.853 60.7133 345.479 54.4045C345.479 54.4045 341.236 50.7605 342.26 48.0958C343.159 45.7841 343.308 41.8357 348.004 39.8867C349.283 41.8277 352.791 45.8752 360.053 46.4503C360.028 46.5573 359.995 46.6644 359.963 46.7714Z" fill="#43274D"/>
<path d="M394.17 90.9967C394.18 91.2851 394.152 91.5602 394.11 91.8345C393.788 94.2223 391.861 96.0978 389.528 96.1412C386.911 96.1951 384.756 93.986 384.696 91.1948C384.648 88.4045 386.722 86.1043 389.339 86.0503H389.352C391.969 86.0105 394.111 88.2063 394.17 90.9967Z" fill="#FEB3B0"/>
<path d="M391.769 91.044C391.794 92.4197 390.768 93.5583 389.478 93.5867C388.188 93.615 387.122 92.5224 387.096 91.1467C387.071 89.771 388.097 88.6324 389.387 88.6041C390.677 88.5757 391.743 89.6683 391.769 91.044Z" fill="#FF96A3"/>
<path d="M394.11 91.8359C393.788 94.2237 391.861 96.0992 389.528 96.1426C386.911 96.1965 384.756 93.9875 384.696 91.1963C384.648 88.4059 386.722 86.1057 389.339 86.0518H389.352L389.166 87.7132C389.166 87.7132 390.607 91.6466 394.11 91.8359Z" fill="#FC8697"/>
<path d="M341.186 86.8394C342.841 88.9821 342.555 92.1449 340.554 93.9037C338.553 95.6625 335.588 95.3608 333.941 93.2287C332.285 91.1045 332.57 87.9417 334.571 86.183L334.723 86.0582C336.385 84.7002 338.631 84.7011 340.267 85.93C340.599 86.1883 340.91 86.482 341.186 86.8394Z" fill="#FEB3B0"/>
<path d="M339.478 88.353C340.35 89.4783 340.2 91.1459 339.143 92.0766C338.087 93.0073 336.524 92.8499 335.652 91.7236C334.78 90.5983 334.93 88.9307 335.987 88C337.044 87.0693 338.606 87.2276 339.478 88.353Z" fill="#FC8697"/>
<path opacity="0.7" d="M341.186 86.8392C342.841 88.9819 342.555 92.1447 340.554 93.9034C338.553 95.6622 335.588 95.3605 333.941 93.2284C332.285 91.1043 332.57 87.9415 334.571 86.1827L334.723 86.058C335.549 86.9064 337.46 88.2007 340.267 85.9297C340.599 86.188 340.91 86.4817 341.186 86.8392Z" fill="#43274D"/>
<path d="M389.755 83.7456C389.755 84.0499 389.763 84.3463 389.755 84.6418C389.738 85.8264 389.681 87.011 389.573 88.1708C389.359 90.4984 388.971 92.7527 388.41 94.9157C386.808 101.117 383.845 106.522 379.991 110.544C377.523 113.118 374.693 115.126 371.614 116.401C370.781 116.754 369.922 117.042 369.056 117.281C367.273 117.75 365.416 118.004 363.518 117.98C359.952 117.947 356.56 116.968 353.482 115.233C347.333 111.77 342.447 105.305 339.914 97.2513C338.932 94.1257 338.296 90.77 338.082 87.2658C338.065 86.9942 338.049 86.7314 338.041 86.4598C338.008 85.6786 337.983 84.8727 337.999 84.0667C338.032 80.727 338.437 77.5023 339.18 74.4678C341.936 62.9853 349.29 54.1428 358.418 51.5348C360.292 50.9916 362.231 50.7199 364.229 50.7447C364.774 50.7527 365.31 50.7775 365.846 50.827C369.568 51.1641 373.051 52.5053 376.155 54.6683C380.487 57.6869 384.086 62.2519 386.471 67.8043C388.088 71.5306 389.161 75.701 389.574 80.1263C389.657 80.957 389.707 81.8046 389.723 82.6512C389.731 82.8405 389.739 83.0299 389.739 83.2103C389.747 83.3917 389.747 83.5563 389.755 83.7456Z" fill="#FEB3B0"/>
<path d="M353.483 115.232C347.337 111.773 342.449 105.3 339.916 97.2515C342.334 94.3683 346.394 91.6929 349.821 91.7319C356.088 91.8018 361.106 97.2736 361.038 103.962C360.987 109.181 357.837 113.591 353.483 115.232Z" fill="#FC8697"/>
<path d="M388.406 94.9093C386.803 101.12 383.844 106.524 379.995 110.537C378.965 108.912 378.379 106.952 378.403 104.844C378.463 99.285 382.732 94.8271 387.944 94.8863C388.101 94.889 388.251 94.8916 388.406 94.9093Z" fill="#FC8697"/>
<path opacity="0.7" d="M371.615 116.401C370.782 116.754 369.923 117.042 369.057 117.281C367.274 117.75 365.417 118.004 363.519 117.98C359.953 117.947 356.561 116.968 353.483 115.233C347.334 111.77 342.448 105.305 339.915 97.2513C338.933 94.1257 338.297 90.77 338.083 87.2658C338.066 86.9942 338.05 86.7314 338.042 86.4598C338.009 85.6786 337.984 84.8727 338 84.0667C338.033 80.727 338.438 77.5023 339.181 74.4678C341.937 62.9853 349.291 54.1428 358.419 51.5348C360.293 50.9916 362.232 50.7199 364.23 50.7447C364.775 50.7527 365.311 50.7775 365.847 50.827L361.044 71.3254C361.044 71.3254 356.736 83.9517 348.953 85.0204C348.953 85.0204 355.101 112.461 371.615 116.401Z" fill="#43274D"/>
<path d="M378.26 86.2346C376.079 86.2603 374.327 88.1526 374.354 90.4546C374.359 90.8961 374.703 91.2508 375.121 91.2464C375.539 91.2411 375.875 90.8784 375.87 90.4369C375.854 89.0179 376.933 87.8501 378.278 87.8342C379.623 87.8182 380.729 88.9604 380.745 90.3794C380.75 90.8209 381.094 91.1756 381.512 91.1703C381.93 91.165 382.266 90.8023 382.26 90.3609C382.234 88.0606 380.44 86.209 378.26 86.2346Z" fill="#874048"/>
<path d="M360.473 86.4417C362.763 86.4151 364.647 88.265 364.673 90.5661C364.679 91.0076 364.325 91.3703 363.886 91.3756C363.446 91.3809 363.085 91.0262 363.08 90.5847C363.064 89.1657 361.903 88.0244 360.491 88.0412C359.078 88.058 357.943 89.2258 357.959 90.6449C357.964 91.0863 357.611 91.4491 357.172 91.4544C356.732 91.4597 356.372 91.1049 356.366 90.6634C356.342 88.3623 358.184 86.4682 360.473 86.4417Z" fill="#874048"/>
<path d="M365.347 81.0685C365.347 81.0685 356.116 85.4203 355.447 84.694C354.779 83.9667 354.131 83.082 354.953 82.5503C355.776 82.0186 363.79 78.433 364.367 78.6683C364.944 78.9045 365.372 79.6335 365.347 81.0685Z" fill="#B40500"/>
<path d="M374.175 81.2061C374.175 81.2061 382.799 85.5836 383.372 84.8608C383.946 84.138 384.495 83.263 383.722 82.7782C382.949 82.2934 375.493 79.1076 374.979 79.3544C374.465 79.6004 374.086 79.8233 374.175 81.2061Z" fill="#B40500"/>
<path d="M368.136 95.4995C368.768 96.132 371.506 96.1427 372.234 95.5004C372.41 95.3438 372.453 94.7811 372.417 93.9858C372.269 91.4104 371.115 86.4942 370.034 86.5039C369.95 86.5083 369.881 86.526 369.8 86.5897C368.52 87.4364 367.533 94.9094 368.136 95.4995Z" fill="#FC8697"/>
<path opacity="0.5" d="M368.136 95.4986C368.768 96.1312 371.506 96.1418 372.234 95.4995C372.41 95.3429 372.453 94.7802 372.417 93.9849C369.485 93.1285 369.531 88.9784 369.8 86.5889C368.52 87.4355 367.533 94.9085 368.136 95.4986Z" fill="#43274D"/>
<path d="M375.091 99.5947C375.091 99.5947 372.262 100.188 369.864 100.16C367.465 100.132 364.65 99.4727 364.65 99.4727C364.65 99.4727 365.983 103.284 369.828 103.329C373.672 103.373 375.091 99.5947 375.091 99.5947Z" fill="white"/>
<path d="M390.565 99.4729C389.971 101.488 388.65 103.487 388.65 103.487C388.65 103.487 389.418 101.291 388.411 98.7245C387.395 96.166 386.141 92.6785 385.877 90.5075C385.737 89.2981 386.496 86.6988 387.198 84.6428C385.457 82.2824 384.69 77.7909 384.69 77.7909C377.832 79.3948 369.875 71.3503 369.875 71.3503C359.774 75.7101 356.836 65.7325 356.836 65.7325C358.346 75.3155 347.039 80.8262 341.254 82.9982C341.246 83.4096 341.246 83.8696 341.27 84.3633C341.353 86.5431 344.786 89.1096 346.016 93.6658C347.245 98.2229 342.673 101.99 342.673 101.99C343.292 99.5384 341.707 91.2143 339.57 89.5449C337.44 87.8834 338.001 84.0669 338.001 84.0669C327.363 78.3916 333.156 63.9144 337.564 58.3869C339.107 56.4538 341.377 55.179 343.679 54.3314C347.929 52.7682 352.278 52.7027 352.278 52.7027C368.661 41.944 382.659 51.4606 388.361 60.8543C388.378 60.8791 388.394 60.9118 388.411 60.9366C394.642 71.276 392.331 84.0996 389.913 85.8433C389.731 86.7564 389.36 88.5992 388.98 90.3756C388.453 92.8758 391.16 97.4576 390.565 99.4729Z" fill="#B40500"/>
<path opacity="0.7" d="M390.565 99.4726C389.971 101.488 388.65 103.486 388.65 103.486C388.65 103.486 389.418 101.291 388.411 98.7241C387.395 96.1656 386.141 92.6781 385.877 90.5071C385.737 89.2977 386.496 86.6985 387.198 84.6424C385.457 82.2821 384.69 77.7905 384.69 77.7905C377.832 79.3944 369.875 71.3499 369.875 71.3499C359.774 75.7097 356.836 65.7321 356.836 65.7321C358.346 75.3151 347.039 80.8259 341.254 82.9978C341.246 83.4092 341.246 83.8692 341.27 84.3629C341.353 86.5428 344.786 89.1093 346.016 93.6654C347.245 98.2225 342.673 101.99 342.673 101.99C343.292 99.538 341.707 91.2139 339.57 89.5445C337.44 87.8831 338.001 84.0665 338.001 84.0665C327.363 78.3912 333.156 63.9141 337.564 58.3865C339.107 56.4534 341.377 55.1786 343.679 54.3311C353.55 56.7985 356.374 63.6256 388.361 60.8539C388.378 60.8787 388.394 60.9114 388.411 60.9362C394.642 71.2756 392.331 84.0992 389.913 85.843C389.731 86.756 389.36 88.5988 388.98 90.3753C388.453 92.8754 391.16 97.4572 390.565 99.4726Z" fill="#43274D"/>
<path d="M443.729 63.6246C443.729 63.6246 454.955 80.2312 457.802 81.4291C459.385 82.0952 462.311 81.1752 462.189 78.8086C462.068 76.442 449.904 60.8263 448.039 59.8301C445.577 58.5146 443.466 59.6169 443.729 63.6246Z" fill="#FFC079"/>
<path d="M457.801 81.4282C457.801 81.4282 425.87 131.052 388.161 156.939C388.161 156.939 387.79 205.255 383.573 222.792C383.573 222.792 338.007 242.245 315.319 219.633L317.077 208.76C317.077 208.76 308.279 207.715 308.279 196.142C308.279 184.568 314.964 151.609 327.633 140.044C332.799 135.322 338.543 132.106 343.536 129.951C350.783 126.817 356.453 125.929 356.453 125.929L368.891 125.42C368.891 125.42 369.394 125.502 370.318 125.551C374.718 125.79 388.549 125.321 402.217 112.152C418.748 96.2105 443.73 63.6299 443.73 63.6299L457.801 81.4282Z" fill="#FFDD79"/>
<path d="M369.979 127.274C369.979 127.274 356.196 140.723 346.227 139.859C339.699 139.291 338.617 134.381 343.536 129.946C350.782 126.813 356.452 125.925 356.452 125.925L368.89 125.415C368.89 125.415 369.394 125.497 370.318 125.547C370.399 126.468 369.979 127.274 369.979 127.274Z" fill="#43274D"/>
<path d="M343.542 234.106C320.224 234.106 310.908 222.168 310.485 221.608C309.387 220.156 309.678 218.094 311.135 217C312.585 215.91 314.643 216.194 315.745 217.63C316.169 218.172 325.601 229.772 350.665 227.14C376.544 224.421 384.755 218.855 384.835 218.8C386.299 217.72 388.351 218.039 389.436 219.501C390.519 220.962 390.194 223.034 388.728 224.114C387.814 224.788 379.002 230.779 351.356 233.684C348.595 233.974 345.989 234.106 343.542 234.106Z" fill="#FFC079"/>
<path d="M464.122 62.4651L450.845 54.8257C449.231 53.8968 448.678 51.8399 449.609 50.2315L467.659 19.0735C468.591 17.4651 470.655 16.914 472.269 17.8429L485.546 25.4822C487.159 26.4111 487.712 28.4681 486.781 30.0764L468.732 61.2345C467.8 62.8428 465.736 63.394 464.122 62.4651Z" fill="#0044B3"/>
<path d="M466.233 60.9087C466.03 60.9087 465.836 60.8556 465.655 60.7521L451.87 52.1237C451.507 51.9149 451.374 51.5937 451.327 51.4203C451.281 51.2469 451.235 50.9028 451.444 50.541L468.896 20.2738C469.106 19.9111 469.485 19.6943 469.907 19.6943C470.11 19.6943 470.306 19.7465 470.485 19.85L484.52 28.1874C484.883 28.3962 485.015 28.7182 485.062 28.8907C485.108 29.0641 485.154 29.4083 484.945 29.7692L467.244 60.3274C467.034 60.691 466.656 60.9087 466.233 60.9087Z" fill="white"/>
<path d="M479.039 23.3508C478.942 23.6861 478.59 23.8798 478.255 23.7834C477.918 23.687 477.724 23.3366 477.821 23.0013C477.918 22.666 478.268 22.4723 478.605 22.5687C478.941 22.666 479.135 23.0155 479.039 23.3508Z" fill="#001D4D"/>
<path d="M482.207 30.1422L470.485 23.1025L463.398 34.8248L475.12 41.8645L482.207 30.1422Z" fill="#CEDDF5"/>
<path d="M473.298 44.8796L461.576 37.8398L454.489 49.5621L466.211 56.6018L473.298 44.8796Z" fill="#CEDDF5"/>
<path d="M477.037 33.9426C475.868 36.2587 473.037 37.1911 470.714 36.026C468.391 34.8609 467.454 32.0396 468.624 29.7243C469.792 27.4082 472.623 26.4757 474.946 27.64C477.269 28.806 478.206 31.6273 477.037 33.9426Z" fill="#EC4557"/>
<path d="M474.495 32.7138L471.965 33.548L471.127 31.0258C470.929 30.4233 471.256 29.7739 471.86 29.574C472.162 29.4749 472.476 29.5059 472.74 29.6377C473.003 29.7695 473.215 30.0031 473.316 30.3038L473.43 30.6453L473.773 30.533C474.075 30.4339 474.39 30.4649 474.653 30.5976C474.917 30.7294 475.129 30.9629 475.229 31.2629C475.427 31.8653 475.1 32.5147 474.495 32.7138Z" fill="white"/>
<path d="M468.395 48.8797C467.227 51.1959 464.395 52.1283 462.072 50.9632C459.749 49.798 458.813 46.9768 459.982 44.6615C461.15 42.3454 463.982 41.4129 466.305 42.5781C468.628 43.7432 469.563 46.5645 468.395 48.8797Z" fill="#EC4557"/>
<path d="M465.851 47.6513L463.32 48.4856L462.483 45.9633C462.284 45.3609 462.612 44.7115 463.215 44.5124C463.517 44.4134 463.831 44.4443 464.095 44.5761C464.359 44.708 464.571 44.9415 464.672 45.2423L464.786 45.5829L465.128 45.4706C465.431 45.3715 465.745 45.4025 466.009 45.5352C466.272 45.667 466.485 45.9005 466.585 46.2004C466.783 46.8029 466.455 47.4523 465.851 47.6513Z" fill="white"/>
<path d="M450.92 62.7666C450.92 62.7666 458.154 46.2432 460.441 46.2432C462.728 46.2432 458.506 58.3838 459.737 59.7639C460.968 61.1449 466.636 62.8099 466.636 62.8099C465.292 67.9845 458.036 71.9993 458.036 71.9993L450.92 62.7666Z" fill="#FEB3B0"/>
<path d="M455.752 235.916L359.564 241.576C359.12 241.602 358.74 241.264 358.714 240.823L353.035 144.958C353.008 144.515 353.347 144.136 353.79 144.11L449.978 138.45C450.421 138.423 450.802 138.761 450.828 139.203L456.507 235.068C456.534 235.51 456.196 235.89 455.752 235.916Z" fill="white"/>
<path d="M451.212 213.758L361.454 219.039C361.01 219.065 360.63 218.728 360.604 218.287L356.4 147.319C356.374 146.877 356.712 146.497 357.155 146.472L446.913 141.19C447.357 141.163 447.738 141.501 447.764 141.943L451.968 212.91C451.994 213.353 451.656 213.732 451.212 213.758Z" fill="#DFEFFE"/>
<path d="M382.249 173.785C382.249 173.785 385.658 191.626 384.069 196.285C382.48 200.945 373.6 209.227 377.604 213.541C381.608 217.857 392.865 213.616 404.313 213.981C415.76 214.345 428.536 215.59 432.389 210.317C436.241 205.045 429.7 204.263 427.049 197.842C424.397 191.421 421.46 173.33 421.46 173.33L382.249 173.785Z" fill="#B40500"/>
<path d="M390.637 158.179C390.637 158.179 387.529 155.813 388.135 153.914C388.741 152.014 388.573 148.636 393.494 147.33C398.415 146.024 401.304 148.881 400.421 152.263C399.539 155.645 399.985 158.186 399.985 158.186C399.985 158.186 393.948 162.396 390.637 158.179Z" fill="#B40500"/>
<path d="M400.624 208.522C400.624 208.522 388.073 208.375 384.355 211.639C382.401 213.355 376.387 218.163 376.387 218.163L434.907 214.72C434.907 214.72 431.217 208.673 425.923 207.219C422.371 206.243 410.11 207.081 410.11 207.081L400.624 208.522Z" fill="#FC8697"/>
<path d="M410.111 207.083C410.355 207.483 410.592 207.825 410.726 207.975C410.726 207.975 410.694 207.997 410.63 208.047C409.676 208.795 409.041 209.297 408.208 209.636C407.689 209.849 407.095 210.004 406.299 210.109C404.182 210.387 402.168 210.153 400.624 208.524C402.533 206.339 402.15 204.024 401.553 201.382C401.529 201.276 401.508 201.19 401.497 201.14C401.497 201.136 401.497 201.136 401.497 201.136V201.131C401.378 200.6 401.254 200.13 401.182 199.617C402.995 199.539 405.978 199.488 407.513 199.497C408.57 199.497 408.944 199.5 409.485 199.502C409.505 199.501 409.526 199.503 409.543 199.503C409.622 199.503 409.706 199.505 409.797 199.504C409.964 199.507 410.147 199.509 410.371 199.512L410.401 199.511C410.265 199.742 410.129 199.982 410.002 200.222C409.071 201.98 408.545 203.901 409.373 205.738C409.525 206.089 409.826 206.615 410.111 207.083Z" fill="#FEB3B0"/>
<path d="M410.374 199.502C410.374 199.506 410.369 199.506 410.37 199.51C410.24 199.749 410.114 199.984 410.001 200.221C409.068 201.98 408.543 203.899 409.37 205.739C409.526 206.087 409.824 206.614 410.11 207.082C405.967 208.054 403.734 204.251 401.502 201.144L401.498 201.139C401.498 201.135 401.498 201.135 401.498 201.135C401.494 201.13 401.489 201.127 401.489 201.127C401.489 201.122 401.494 201.122 401.494 201.127C401.107 200.661 400.957 200.199 401.159 199.616L401.18 199.615C403.948 199.517 406.712 199.503 409.482 199.502C409.504 199.501 409.525 199.503 409.543 199.502C409.63 199.502 409.713 199.502 409.797 199.505C409.988 199.502 410.181 199.5 410.374 199.502Z" fill="#FF96A3"/>
<path d="M426.092 181.696C426.11 181.897 426.101 182.09 426.084 182.282C425.958 183.961 424.692 185.347 423.067 185.473C421.245 185.618 419.653 184.166 419.495 182.223C419.346 180.279 420.696 178.591 422.519 178.446H422.528C424.351 178.31 425.935 179.753 426.092 181.696Z" fill="#FEB3B0"/>
<path d="M424.418 181.827C424.493 182.785 423.824 183.621 422.926 183.694C422.028 183.766 421.239 183.049 421.165 182.09C421.09 181.132 421.759 180.296 422.657 180.224C423.555 180.151 424.344 180.869 424.418 181.827Z" fill="#FF96A3"/>
<path opacity="0.7" d="M426.084 182.281C425.958 183.96 424.692 185.346 423.067 185.472C421.245 185.617 419.653 184.165 419.495 182.222C419.346 180.278 420.696 178.59 422.519 178.445H422.528L422.467 179.611C422.467 179.611 423.634 182.293 426.084 182.281Z" fill="#43274D"/>
<path d="M388.981 180.966C390.223 182.392 390.155 184.608 388.832 185.917C387.51 187.224 385.431 187.136 384.194 185.718C382.952 184.305 383.02 182.089 384.343 180.78L384.443 180.686C385.545 179.672 387.111 179.58 388.302 180.37C388.547 180.536 388.775 180.728 388.981 180.966Z" fill="#FEB3B0"/>
<path d="M387.855 182.091C388.509 182.84 388.473 184.008 387.775 184.701C387.077 185.393 385.981 185.347 385.327 184.598C384.672 183.849 384.708 182.681 385.407 181.988C386.104 181.296 387.201 181.342 387.855 182.091Z" fill="#FC8697"/>
<path opacity="0.7" d="M388.981 180.966C390.223 182.393 390.155 184.609 388.832 185.917C387.51 187.225 385.431 187.136 384.194 185.718C382.952 184.305 383.02 182.089 384.343 180.781L384.443 180.687C385.054 181.244 386.439 182.069 388.302 180.37C388.547 180.536 388.775 180.728 388.981 180.966Z" fill="#43274D"/>
<path d="M422.716 176.813L422.753 177.443C422.793 178.269 422.797 179.097 422.774 179.908C422.72 181.408 422.574 182.877 422.301 184.292C422.281 184.418 422.262 184.535 422.233 184.661C421.376 189.049 419.542 192.942 417.018 195.896C416.291 196.75 415.524 197.516 414.688 198.198C413.163 199.464 411.479 200.436 409.673 201.041C408.445 201.443 407.164 201.697 405.837 201.757C403.351 201.885 400.95 201.341 398.733 200.26C398.318 200.053 397.912 199.836 397.513 199.583C393.632 197.282 390.428 193.275 388.532 188.274C388.33 187.733 388.136 187.193 387.961 186.633C387.442 184.971 387.061 183.212 386.837 181.39C386.817 181.204 386.797 181.019 386.777 180.833C386.727 180.283 386.676 179.725 386.652 179.166C386.532 176.839 386.684 174.577 387.075 172.426C388.524 164.306 393.288 157.835 399.54 155.65C400.827 155.192 402.17 154.925 403.56 154.862C406.58 154.71 409.462 155.521 412.031 157.106C415.184 159.031 417.874 162.062 419.768 165.834C421.054 168.368 421.974 171.236 422.442 174.298C422.53 174.881 422.6 175.464 422.653 176.059C422.66 176.183 422.678 176.324 422.685 176.449C422.701 176.573 422.699 176.689 422.716 176.813Z" fill="#FEB3B0"/>
<path d="M399.446 193.628C399.563 195.902 398.821 198.012 397.52 199.584C393.639 197.283 390.435 193.277 388.538 188.275C388.337 187.735 388.144 187.194 387.968 186.634C389.004 186.012 390.096 185.609 391.122 185.567C395.498 185.354 399.223 188.965 399.446 193.628Z" fill="#FC8697"/>
<path d="M422.305 184.29C422.286 184.416 422.266 184.533 422.238 184.659C421.38 189.047 419.546 192.94 417.023 195.894C416.296 196.748 415.528 197.514 414.693 198.196C413.404 196.812 412.561 194.955 412.419 192.861C412.099 188.204 415.364 184.181 419.734 183.879C420.553 183.824 421.429 183.977 422.305 184.29Z" fill="#FC8697"/>
<path d="M411.013 179.25C409.494 179.357 408.35 180.748 408.464 182.351C408.486 182.659 408.74 182.892 409.031 182.872C409.322 182.851 409.541 182.584 409.52 182.277C409.45 181.288 410.155 180.431 411.091 180.364C412.028 180.298 412.846 181.049 412.916 182.037C412.939 182.344 413.192 182.578 413.484 182.558C413.775 182.537 413.994 182.27 413.972 181.963C413.859 180.359 412.531 179.143 411.013 179.25Z" fill="#874048"/>
<path d="M398.623 180.124C400.218 180.012 401.608 181.224 401.722 182.827C401.743 183.135 401.512 183.402 401.206 183.423C400.901 183.445 400.634 183.213 400.612 182.905C400.542 181.916 399.686 181.168 398.702 181.238C397.718 181.308 396.975 182.168 397.045 183.157C397.066 183.465 396.835 183.732 396.529 183.753C396.224 183.775 395.957 183.543 395.935 183.235C395.822 181.633 397.028 180.237 398.623 180.124Z" fill="#874048"/>
<path d="M401.796 176.178C401.796 176.178 395.54 179.591 395.045 179.111C394.549 178.632 394.061 178.041 394.612 177.637C395.163 177.233 400.602 174.404 401.014 174.545C401.426 174.686 401.753 175.177 401.796 176.178Z" fill="#B40500"/>
<path d="M407.953 175.913C407.953 175.913 414.146 178.61 414.516 178.083C414.886 177.556 415.232 176.923 414.674 176.617C414.115 176.311 408.785 174.397 408.437 174.589C408.089 174.782 407.835 174.953 407.953 175.913Z" fill="#B40500"/>
<path d="M404.332 186.125C404.8 186.539 406.708 186.434 407.189 185.957C407.305 185.841 407.313 185.447 407.254 184.894C407.045 183.104 406.037 179.725 405.284 179.776C405.226 179.782 405.179 179.798 405.125 179.845C404.266 180.488 403.887 185.738 404.332 186.125Z" fill="#FC8697"/>
<path opacity="0.5" d="M404.332 186.124C404.8 186.539 406.708 186.434 407.189 185.957C407.305 185.841 407.313 185.447 407.254 184.894C405.175 184.417 405.036 181.522 405.125 179.845C404.266 180.488 403.887 185.738 404.332 186.124Z" fill="#43274D"/>
<path d="M409.35 188.691C409.35 188.691 407.402 189.221 405.729 189.3C404.056 189.379 402.066 189.035 402.066 189.035C402.066 189.035 403.153 191.637 405.835 191.511C408.516 191.384 409.35 188.691 409.35 188.691Z" fill="white"/>
<path d="M422.449 181.474C422.638 180.212 422.824 178.916 422.915 178.274C424.524 176.959 425.605 167.928 420.834 160.97C416.493 154.64 406.316 148.517 395.308 156.712C395.308 156.712 388.128 157.25 385.283 161.281C382.438 165.312 378.997 175.642 386.647 179.167C386.647 179.167 386.412 181.846 387.97 182.92C389.528 183.993 390.975 189.734 390.647 191.47C390.647 191.47 393.679 188.655 392.633 185.528C391.586 182.4 389.089 180.754 388.937 179.238C388.903 178.892 388.884 178.573 388.873 178.283C392.813 176.537 400.469 172.231 399.022 165.61C399.022 165.61 401.484 172.444 408.346 168.991C408.346 168.991 414.225 174.275 418.94 172.877C418.94 172.877 419.659 175.974 420.967 177.547C420.564 179.012 420.141 180.855 420.293 181.693C420.567 183.195 421.585 185.573 422.394 187.318C423.205 189.065 422.76 190.624 422.76 190.624C422.76 190.624 423.597 189.18 423.928 187.749C424.259 186.319 422.185 183.237 422.449 181.474Z" fill="#B40500"/>
<path d="M444.566 225.061L439.616 230.614L434.045 225.681C432.717 224.502 432.597 222.473 433.776 221.147C434.366 220.485 435.171 220.121 435.993 220.073C436.816 220.024 437.659 220.291 438.324 220.879L439.078 221.546L439.747 220.794C440.34 220.133 441.145 219.769 441.967 219.72C442.79 219.672 443.633 219.939 444.296 220.526C445.628 221.707 445.748 223.735 444.566 225.061Z" fill="#EC4557"/>
<path d="M425.788 224.16L362.436 227.885L362.663 231.719L426.015 227.993L425.788 224.16Z" fill="#CEDDF5"/>
<path d="M197.843 107.19L182.105 111.041C178.827 111.844 175.517 109.845 174.712 106.578L171.983 95.5043C171.178 92.2371 173.184 88.9381 176.462 88.1357L192.198 84.2846C195.476 83.4822 198.787 85.4807 199.592 88.7479L202.32 99.8216C203.126 103.09 201.121 106.388 197.843 107.19Z" fill="#3D9BFB"/>
<path d="M186.953 109.857L191.537 115.46L192.996 108.378L186.953 109.857Z" fill="#3D9BFB"/>
<path d="M183.079 96.736L185.112 104.985C185.112 104.985 193.38 103.171 193.736 102.187C194.154 101.038 193.289 100.609 193.289 100.609C193.289 100.609 194.447 99.9766 194.32 99.1052C194.193 98.2347 193.486 97.8542 193.486 97.8542C193.486 97.8542 194.678 97.3588 194.496 96.3848C194.314 95.4107 193.237 95.0639 193.237 95.0639C193.237 95.0639 193.991 94.3261 193.376 93.1839C192.683 91.8976 187.665 93.7793 187.665 93.7793C187.665 93.7793 186.085 88.5499 183.819 89.4249C183.618 89.6779 185.159 92.7336 184.977 93.652C184.794 94.5703 183.079 96.736 183.079 96.736Z" fill="white"/>
<path d="M182.005 96.8946L179.444 97.5215L181.497 105.852L184.058 105.226L182.005 96.8946Z" fill="white"/>
<path d="M214.609 23.9155L198.408 23.5819C195.033 23.5129 192.354 20.7297 192.423 17.3661L192.659 5.96592C192.729 2.60231 195.521 -0.0676981 198.896 0.00130801L215.097 0.333952C218.472 0.402959 221.151 3.1862 221.081 6.54981L220.845 17.95C220.776 21.3145 217.984 23.9845 214.609 23.9155Z" fill="#3D76FB"/>
<path d="M203.397 23.6855L206.374 30.2783L209.619 23.8138L203.397 23.6855Z" fill="#3D76FB"/>
<path d="M203.067 10.0104L202.892 18.5025C202.892 18.5025 211.348 18.8803 211.948 18.0222C212.65 17.0189 211.925 16.3819 211.925 16.3819C211.925 16.3819 213.208 16.0688 213.311 15.1947C213.414 14.3206 212.83 13.7712 212.83 13.7712C212.83 13.7712 214.11 13.5996 214.187 12.6123C214.264 11.6249 213.313 11.0118 213.313 11.0118C213.313 11.0118 214.233 10.4934 213.935 9.23184C213.6 7.81014 208.263 8.33653 208.263 8.33653C208.263 8.33653 208.092 2.87797 205.676 3.13895C205.417 3.33182 206.114 6.68126 205.699 7.52084C205.285 8.36041 203.067 10.0104 203.067 10.0104Z" fill="white"/>
<path d="M202 9.89497L199.363 9.84082L199.186 18.418L201.823 18.4721L202 9.89497Z" fill="white"/>
<path d="M125.903 132.78L105.757 144.975C102.221 147.116 97.6145 145.994 95.4672 142.47L86.5843 127.893C84.4371 124.369 85.5626 119.778 89.0982 117.638L109.245 105.442C112.78 103.302 117.387 104.424 119.534 107.947L128.417 122.525C130.565 126.048 129.439 130.64 125.903 132.78Z" fill="#EC4557"/>
<path d="M112.225 141.061L120.444 146.448L119.438 136.695L112.225 141.061Z" fill="#EC4557"/>
<path d="M113.815 121.596L111.373 131.563L101.371 129.129C98.9852 128.545 97.5232 126.146 98.1037 123.766C98.3949 122.578 99.1414 121.616 100.115 121.027C101.089 120.437 102.289 120.221 103.485 120.509L104.838 120.838L105.168 119.49C105.462 118.3 106.209 117.338 107.182 116.749C108.156 116.16 109.356 115.943 110.548 116.233C112.937 116.816 114.399 119.216 113.815 121.596Z" fill="white"/>
<path d="M40.4093 46.2311L20.2628 58.4266C16.7272 60.5667 12.1202 59.4449 9.97298 55.9212L1.08922 41.3441C-1.05804 37.8203 0.0675189 33.2288 3.60309 31.0887L23.7496 18.8932C27.2851 16.7531 31.8921 17.8749 34.0394 21.3986L42.9222 35.9757C45.0704 39.4986 43.9448 44.0902 40.4093 46.2311Z" fill="#FB494A"/>
<path d="M26.7295 54.5114L34.9484 59.8974L33.9427 50.1445L26.7295 54.5114Z" fill="#FB494A"/>
<path d="M28.3208 35.0467L25.878 45.0145L15.8767 42.5799C13.4906 41.996 12.0286 39.5958 12.6083 37.2169C12.8994 36.0287 13.646 35.067 14.6197 34.4778C15.5935 33.8886 16.7945 33.6719 17.9893 33.9603L19.3421 34.2894L19.6723 32.9411C19.967 31.7512 20.7136 30.7896 21.6864 30.2003C22.6602 29.6111 23.8603 29.3944 25.0525 29.6846C27.4421 30.2658 28.904 32.666 28.3208 35.0467Z" fill="white"/>
<path d="M362.789 158.826C313.12 126.074 326.673 139.517 232.492 147.096C135.49 154.901 139.335 91.2852 139.335 91.2852" stroke="#EC4557" stroke-width="0.412816" stroke-miterlimit="10"/>
<path d="M179.851 73.6332L92.943 94.8809C87.372 96.2433 81.7469 92.8461 80.3808 87.2929L70.786 48.3097C69.419 42.7574 72.8276 37.1511 78.3995 35.7895L165.307 14.5418C170.878 13.1794 176.503 16.5766 177.87 22.1298L187.464 61.113C188.831 66.6653 185.423 72.2708 179.851 73.6332Z" fill="#EC4557"/>
<path d="M128.602 86.1628L140.424 100.619L144.193 82.3516L128.602 86.1628Z" fill="#EC4557"/>
<path d="M92.4233 71.9697L94.267 71.5194C94.4729 71.4689 94.6939 71.4698 94.9336 71.5194C95.1733 71.5689 95.3322 71.7503 95.4094 72.0661C95.46 72.2713 95.428 72.4456 95.3162 72.5907C95.2043 72.7367 95.0543 72.8322 94.8679 72.8782L88.8043 74.361C88.4315 74.4521 88.0915 74.491 87.7817 74.4787C87.4719 74.4645 87.2855 74.3291 87.2216 74.0682C87.1532 73.7904 87.2012 73.5816 87.3636 73.4436C87.5278 73.3047 87.7852 73.1932 88.1394 73.1065C88.3072 73.0658 88.5096 73.0065 88.7484 72.9287C88.9854 72.8508 89.2064 72.742 89.4088 72.6049C89.6112 72.466 89.7807 72.2917 89.9174 72.082C90.0523 71.8715 90.0905 71.6061 90.0319 71.2867C89.9139 70.5674 89.7949 69.903 89.6751 69.2926C89.5544 68.6821 89.4141 68.0124 89.2543 67.2834C89.0945 66.5562 88.9055 65.706 88.6871 64.7355C88.4687 63.7668 88.1989 62.553 87.8793 61.095C87.6237 59.9776 87.4062 59.0319 87.226 58.2578C87.0449 57.4855 86.8896 56.8149 86.76 56.246C86.6295 55.6789 86.515 55.1702 86.4138 54.7217C86.3135 54.2731 86.2132 53.8069 86.1138 53.3186C86.096 53.2451 86.0676 53.1531 86.0312 53.0434C85.9939 52.9337 85.946 52.8382 85.8856 52.7541C85.8253 52.671 85.7445 52.6028 85.6424 52.5489C85.5403 52.4949 85.4045 52.4887 85.2376 52.5294C85.1631 52.548 85.0379 52.5781 84.8604 52.6214C84.6837 52.6648 84.4929 52.7161 84.2914 52.7753C84.0881 52.8346 83.8848 52.8886 83.6798 52.939C83.4738 52.9894 83.3158 53.0284 83.204 53.0558C82.943 53.1195 82.6883 53.1434 82.437 53.1257C82.1858 53.108 82.0261 52.9602 81.9568 52.6816C81.884 52.3843 81.9479 52.1622 82.1477 52.0145C82.3492 51.8668 82.5675 51.7553 82.8054 51.6757C82.935 51.6438 83.2049 51.5748 83.6123 51.4642C84.0189 51.3545 84.4556 51.2386 84.9181 51.1148C85.3823 50.9918 85.8128 50.8777 86.2105 50.7697C86.6082 50.6627 86.8736 50.5928 87.0041 50.561C87.2651 50.4973 87.4408 50.5326 87.534 50.668C87.6263 50.8025 87.7018 50.9909 87.7613 51.2316L92.4233 71.9697Z" fill="white"/>
<path d="M96.4179 61.7214C96.0566 60.2546 95.8054 58.7117 95.6634 57.0936C95.5214 55.4746 95.5773 53.9556 95.8303 52.5357C96.0824 51.1148 96.5794 49.8816 97.3189 48.8359C98.0574 47.7884 99.1271 47.0939 100.524 46.7524C101.492 46.5162 102.386 46.495 103.202 46.6878C104.021 46.8825 104.763 47.2275 105.428 47.7238C106.093 48.221 106.694 48.8412 107.233 49.5861C107.772 50.3301 108.246 51.1343 108.657 51.9978C109.067 52.863 109.424 53.7504 109.728 54.6598C110.029 55.5702 110.284 56.4425 110.489 57.2776C111.038 59.5062 111.254 61.4268 111.138 63.0396C111.021 64.6524 110.701 66.0007 110.178 67.0818C109.654 68.1655 108.997 69.0051 108.206 69.6014C107.415 70.1977 106.619 70.5949 105.818 70.7904C105.035 70.9815 104.197 71.0001 103.299 70.8453C102.402 70.6922 101.531 70.28 100.684 69.6103C99.8381 68.9423 99.041 67.9709 98.2935 66.6961C97.5461 65.4212 96.9212 63.7633 96.4179 61.7214ZM98.3832 60.6802C98.6344 61.7011 98.969 62.7556 99.3845 63.8447C99.8008 64.9346 100.304 65.899 100.896 66.7377C101.487 67.5781 102.171 68.2275 102.946 68.6875C103.721 69.1476 104.592 69.2582 105.561 69.0219C106.138 68.8813 106.694 68.553 107.231 68.039C107.765 67.5241 108.195 66.804 108.52 65.8777C108.845 64.9523 109.015 63.8137 109.027 62.4619C109.041 61.111 108.823 59.5256 108.376 57.7058C108.22 57.075 108.026 56.385 107.792 55.6347C107.558 54.8845 107.286 54.1396 106.975 53.3991C106.663 52.6586 106.308 51.9535 105.906 51.2838C105.503 50.6141 105.052 50.0453 104.552 49.5772C104.053 49.1092 103.499 48.7678 102.893 48.551C102.287 48.336 101.621 48.3157 100.894 48.4935C99.9996 48.712 99.3081 49.2313 98.8181 50.0488C98.3281 50.868 97.9979 51.8544 97.8284 53.0072C97.658 54.1608 97.6296 55.4083 97.7423 56.7477C97.8533 58.088 98.0681 59.3982 98.3832 60.6802Z" fill="white"/>
<path d="M118.388 54.697C118.673 54.2547 119.024 53.6956 119.441 53.0223C119.858 52.35 120.289 51.6333 120.735 50.876C121.179 50.1179 121.624 49.3553 122.067 48.5873C122.51 47.8203 122.904 47.1179 123.251 46.4818C123.598 45.8466 123.878 45.3149 124.089 44.8893C124.3 44.4647 124.394 44.2046 124.372 44.1117C124.308 43.8516 124.186 43.7392 124.007 43.7737C123.828 43.8073 123.615 43.8454 123.368 43.8861C123.183 43.9312 122.966 43.9347 122.719 43.8958C122.474 43.8587 122.318 43.7091 122.254 43.4499C122.208 43.2641 122.234 43.0854 122.33 42.9147C122.425 42.7439 122.66 42.6121 123.032 42.521L130.52 40.6906C130.688 40.6499 130.85 40.6693 131.008 40.749C131.166 40.8277 131.273 40.979 131.327 41.2019C131.359 41.332 131.344 41.4744 131.284 41.6257C131.222 41.7787 131.099 41.8778 130.913 41.9229C130.582 42.0238 130.221 42.1264 129.832 42.2308C129.444 42.3361 129.072 42.4511 128.718 42.5776C128.364 42.7041 128.046 42.8404 127.768 42.9864C127.487 43.1341 127.289 43.2907 127.173 43.457C126.662 44.2709 126.12 45.1406 125.548 46.0677C124.977 46.9949 124.398 47.953 123.812 48.943C123.225 49.9321 122.646 50.9406 122.068 51.9669C121.491 52.994 120.928 53.9981 120.38 54.9775C121.734 56.0639 123.062 57.1273 124.364 58.1659C124.906 58.6047 125.476 59.0559 126.075 59.5195C126.672 59.9831 127.263 60.4387 127.848 60.8864C128.432 61.3349 129 61.7569 129.552 62.1532C130.104 62.5505 130.605 62.899 131.055 63.2025C131.239 63.3149 131.658 63.3113 132.311 63.1901C132.963 63.0716 133.679 62.915 134.461 62.7239C134.89 62.6195 135.296 62.5452 135.68 62.5C136.065 62.4549 136.287 62.554 136.346 62.7946C136.387 62.961 136.357 63.1211 136.256 63.2742C136.155 63.4263 135.909 63.59 135.518 63.7643C135.126 63.9377 134.567 64.1341 133.841 64.3508C133.114 64.5685 132.146 64.8241 130.934 65.1205C130.767 65.1612 130.452 65.0471 129.99 64.7755C129.529 64.5048 128.977 64.1332 128.338 63.659C127.698 63.1857 126.986 62.6372 126.2 62.0117C125.414 61.3871 124.62 60.7501 123.819 60.099C123.017 59.4496 122.232 58.8056 121.463 58.1659C120.694 57.5272 119.991 56.961 119.356 56.4673L118.977 57.091L120.931 65.0276L123.613 64.3721C123.817 64.3216 124.044 64.3163 124.29 64.3544C124.536 64.3924 124.689 64.5331 124.749 64.7746C124.813 65.0347 124.79 65.2417 124.68 65.3965C124.57 65.5514 124.421 65.6513 124.236 65.6973L118.172 67.1801C118.042 67.2119 117.9 67.242 117.749 67.2685C117.598 67.296 117.452 67.3075 117.314 67.3022C117.173 67.2968 117.053 67.2623 116.948 67.1995C116.842 67.1358 116.77 67.0208 116.729 66.8536C116.65 66.5378 116.72 66.3157 116.935 66.1839C117.149 66.0521 117.34 65.9663 117.507 65.9256C117.619 65.8981 117.748 65.8619 117.895 65.8159C118.042 65.7708 118.175 65.6885 118.294 65.5708C118.412 65.4531 118.501 65.2948 118.562 65.0922C118.619 64.8914 118.61 64.633 118.533 64.3172C118.182 62.8875 117.855 61.4818 117.554 60.099C117.253 58.7162 116.916 57.2627 116.541 55.741C116.162 54.1998 115.747 52.5932 115.296 50.9229C114.845 49.2518 114.43 47.6452 114.051 46.1049C114.009 45.9377 113.918 45.8271 113.776 45.7731C113.634 45.7183 113.476 45.6944 113.299 45.697C113.123 45.7015 112.944 45.7209 112.765 45.7546C112.586 45.7882 112.441 45.8191 112.328 45.8466C112.122 45.897 111.869 45.9058 111.564 45.8704C111.26 45.8368 111.076 45.69 111.012 45.4308C110.971 45.2636 110.981 45.1238 111.041 45.0105C111.102 44.8973 111.192 44.8017 111.312 44.7221C111.43 44.6443 111.549 44.5868 111.669 44.547C111.788 44.5089 111.893 44.4771 111.987 44.4541L117.239 43.1704C117.836 43.0244 118.257 42.9713 118.503 43.0085C118.749 43.0474 118.907 43.2049 118.975 43.4844C119.012 43.6322 119 43.764 118.938 43.8772C118.878 43.9905 118.797 44.0851 118.697 44.1577C118.596 44.2311 118.479 44.2948 118.343 44.3479C118.208 44.401 118.085 44.4399 117.973 44.4673C117.88 44.4903 117.728 44.5319 117.516 44.5938C117.304 44.6558 117.091 44.7327 116.877 44.823C116.662 44.9159 116.479 45.0344 116.327 45.1795C116.176 45.3246 116.121 45.4812 116.162 45.6484L118.388 54.697Z" fill="white"/>
<path d="M169.789 45.1199L159.638 61.8123L142.89 51.6967C138.896 49.2788 137.619 44.091 140.037 40.1054C141.247 38.1166 143.153 36.7958 145.257 36.2818C147.362 35.7669 149.664 36.0579 151.667 37.262L153.932 38.6297L155.305 36.372C156.521 34.3814 158.428 33.0606 160.532 32.5466C162.637 32.0326 164.939 32.3228 166.936 33.5286C170.936 35.9447 172.213 41.1325 169.789 45.1199Z" fill="white"/>
<path d="M57.1627 115.459L25.8653 129.802C20.6539 132.191 14.4855 129.917 12.0888 124.722L1.56283 101.908C-0.833872 96.714 1.44831 90.5663 6.66069 88.1776L37.958 73.834C43.1695 71.4454 49.3379 73.7199 51.7346 78.9149L62.2596 101.729C64.6563 106.923 62.3742 113.07 57.1627 115.459Z" fill="#3D9BFB"/>
<path d="M36.0225 125.147L46.8307 134.156L47.0047 120.114L36.0225 125.147Z" fill="#3D9BFB"/>
<path d="M23.8071 101.536L30.7238 116.526C30.7238 116.526 45.8248 110.042 46.1434 108.035C46.5163 105.689 44.709 105.188 44.709 105.188C44.709 105.188 46.6849 103.558 46.1212 101.943C45.5576 100.329 44.0698 99.8624 44.0698 99.8624C44.0698 99.8624 46.1603 98.4813 45.4555 96.6898C44.7498 94.8983 42.5652 94.6312 42.5652 94.6312C42.5652 94.6312 43.7334 92.9476 42.1392 90.9942C40.3434 88.7939 31.465 94.2207 31.465 94.2207C31.465 94.2207 26.5234 84.8252 22.5235 87.3227C22.2342 87.8783 26.3005 93.144 26.2899 94.9612C26.2792 96.7783 23.8071 101.536 23.8071 101.536Z" fill="white"/>
<path d="M21.8348 102.249L17.1816 104.382L24.1673 119.521L28.8205 117.388L21.8348 102.249Z" fill="white"/>
<path d="M45.4648 124.988C45.4648 124.988 48.2885 196.191 136.919 188.28C225.55 180.368 331.354 108.828 362.79 158.823" stroke="#3D9BFB" stroke-width="0.412816" stroke-miterlimit="10"/>
<path d="M102.754 209.308C102.754 209.308 109.55 232.715 168.047 219.715C248.618 201.81 321.538 138.76 361.042 160.052" stroke="#EC4557" stroke-width="0.412816" stroke-miterlimit="10"/>
<path d="M110.96 186.475L77.5418 218.72C73.6502 222.474 67.4419 222.374 63.6747 218.496L39.0286 193.124C35.2614 189.245 35.3617 183.058 39.2532 179.303L72.6712 147.058C76.5627 143.304 82.771 143.404 86.5383 147.282L111.184 172.654C114.952 176.533 114.851 182.72 110.96 186.475Z" fill="#FB4142"/>
<path d="M66.3626 199.99L67.3941 199.112C67.5095 199.014 67.6506 198.944 67.8193 198.899C67.9879 198.854 68.1477 198.919 68.2995 199.095C68.398 199.21 68.4335 199.331 68.4087 199.46C68.3838 199.589 68.319 199.698 68.2152 199.786L64.8234 202.673C64.6148 202.851 64.4106 202.984 64.2091 203.075C64.0067 203.166 63.8443 203.139 63.7191 202.993C63.586 202.837 63.5496 202.69 63.6082 202.549C63.6677 202.407 63.7964 202.254 63.9943 202.085C64.0884 202.006 64.1985 201.903 64.3254 201.777C64.4515 201.651 64.5571 201.511 64.6423 201.358C64.7266 201.205 64.779 201.04 64.7985 200.862C64.8163 200.684 64.7559 200.503 64.6148 200.318C64.3077 199.897 64.0174 199.511 63.7449 199.16C63.4706 198.809 63.1652 198.426 62.8288 198.012C62.4924 197.599 62.0983 197.118 61.6455 196.568C61.1937 196.02 60.6309 195.332 59.9572 194.504C59.4344 193.872 58.9905 193.338 58.6266 192.902C58.2627 192.467 57.9466 192.089 57.6812 191.768C57.4149 191.448 57.1779 191.159 56.9693 190.906C56.7607 190.653 56.5459 190.387 56.3258 190.107C56.2903 190.066 56.2432 190.016 56.1846 189.958C56.126 189.901 56.0639 189.855 55.9982 189.82C55.9334 189.786 55.8597 189.769 55.7772 189.767C55.6946 189.765 55.6059 189.804 55.5127 189.884C55.4709 189.919 55.4008 189.979 55.3014 190.063C55.202 190.147 55.0972 190.241 54.988 190.344C54.8771 190.446 54.7653 190.546 54.6507 190.644C54.5353 190.742 54.4475 190.817 54.3844 190.87C54.2389 190.994 54.0835 191.091 53.9175 191.16C53.7515 191.229 53.6015 191.187 53.4684 191.031C53.3263 190.865 53.2953 190.703 53.3752 190.545C53.456 190.385 53.5598 190.245 53.6858 190.118C53.7586 190.056 53.9078 189.926 54.1323 189.725C54.356 189.525 54.5975 189.311 54.8531 189.085C55.1097 188.858 55.3476 188.647 55.5668 188.451C55.7861 188.255 55.9325 188.125 56.0053 188.063C56.1509 187.939 56.2752 187.906 56.3781 187.962C56.4802 188.018 56.5894 188.114 56.7048 188.249L66.3626 199.99Z" fill="white"/>
<path d="M66.8185 189.151C66.8575 188.778 66.9019 188.308 66.9516 187.745C67.0004 187.184 67.0457 186.587 67.0848 185.962C67.1247 185.336 67.162 184.707 67.1975 184.075C67.233 183.444 67.2587 182.869 67.2747 182.352C67.2916 181.836 67.2987 181.407 67.296 181.068C67.2942 180.729 67.2703 180.533 67.2259 180.481C67.1016 180.336 66.9871 180.303 66.8841 180.382C66.7803 180.461 66.6569 180.554 66.5122 180.658C66.4083 180.747 66.2717 180.817 66.1012 180.872C65.9326 180.927 65.7852 180.882 65.66 180.736C65.5713 180.632 65.5296 180.51 65.5358 180.371C65.542 180.231 65.6485 180.072 65.8571 179.895L70.046 176.329C70.1401 176.249 70.2502 176.21 70.3762 176.21C70.5014 176.21 70.6194 176.273 70.726 176.397C70.7881 176.469 70.8245 176.565 70.8351 176.682C70.8458 176.799 70.7979 176.902 70.694 176.99C70.5156 177.16 70.3185 177.341 70.1037 177.533C69.8898 177.725 69.6892 177.917 69.5045 178.11C69.319 178.304 69.161 178.493 69.0296 178.676C68.8982 178.86 68.8219 179.023 68.8015 179.167C68.7376 179.85 68.6719 180.578 68.6062 181.353C68.5405 182.127 68.4793 182.924 68.4251 183.743C68.3692 184.562 68.3239 185.391 68.2866 186.231C68.2494 187.071 68.2139 187.892 68.1801 188.692C69.3936 188.952 70.5839 189.205 71.7503 189.452C72.2377 189.559 72.7463 189.664 73.278 189.768C73.8088 189.872 74.3334 189.974 74.85 190.072C75.3667 190.171 75.8655 190.259 76.3449 190.335C76.8251 190.411 77.2574 190.474 77.6426 190.523C77.7971 190.536 78.0634 190.4 78.4398 190.114C78.8179 189.829 79.2245 189.5 79.6621 189.127C79.9018 188.923 80.137 188.746 80.3678 188.595C80.5986 188.444 80.7726 188.435 80.8879 188.57C80.9678 188.663 80.9998 188.775 80.9856 188.904C80.9705 189.034 80.8658 189.218 80.6722 189.454C80.4778 189.69 80.1849 189.994 79.7908 190.365C79.3967 190.737 78.8614 191.21 78.1841 191.787C78.0909 191.866 77.853 191.894 77.4704 191.868C77.0887 191.843 76.6174 191.782 76.0564 191.685C75.4954 191.588 74.8651 191.466 74.1612 191.319C73.4591 191.172 72.7463 191.019 72.0255 190.86C71.3047 190.703 70.5955 190.543 69.8987 190.381C69.2018 190.219 68.5716 190.083 68.007 189.971L67.9662 190.491L71.7699 194.93L73.27 193.653C73.3845 193.555 73.5265 193.479 73.6961 193.424C73.8665 193.369 74.0085 193.411 74.1239 193.546C74.2482 193.691 74.3006 193.83 74.2811 193.964C74.2606 194.098 74.1976 194.209 74.0938 194.298L70.702 197.184C70.6292 197.246 70.5484 197.311 70.4605 197.375C70.3727 197.442 70.2839 197.495 70.1934 197.536C70.1019 197.578 70.014 197.595 69.9271 197.589C69.8392 197.582 69.7557 197.532 69.6758 197.438C69.5249 197.262 69.4965 197.098 69.5915 196.945C69.6865 196.793 69.7806 196.676 69.8738 196.597C69.9368 196.544 70.0069 196.479 70.0859 196.402C70.1658 196.326 70.2235 196.231 70.2617 196.118C70.2999 196.005 70.3052 195.875 70.2786 195.727C70.2502 195.58 70.1614 195.418 70.0105 195.242C69.3252 194.443 68.6639 193.65 68.0266 192.863C67.3892 192.077 66.7057 191.258 65.9761 190.407C65.2375 189.544 64.4546 188.652 63.6291 187.73C62.8026 186.808 62.0206 185.916 61.2821 185.054C61.2022 184.96 61.1081 184.92 61.0007 184.93C60.8924 184.941 60.7841 184.976 60.6714 185.035C60.5604 185.094 60.453 185.163 60.3491 185.242C60.2453 185.321 60.1627 185.387 60.0997 185.44C59.9843 185.538 59.8254 185.625 59.6195 185.7C59.4144 185.776 59.2502 185.742 59.125 185.597C59.0452 185.503 59.0061 185.411 59.0079 185.319C59.0096 185.227 59.0372 185.137 59.0878 185.048C59.1384 184.96 59.1952 184.885 59.2591 184.822C59.3221 184.759 59.3798 184.705 59.4322 184.661L62.3704 182.16C62.7041 181.876 62.9562 181.707 63.1249 181.652C63.2944 181.598 63.4462 181.647 63.5794 181.804C63.6504 181.887 63.685 181.975 63.6823 182.067C63.6805 182.159 63.6592 182.244 63.6193 182.323C63.5785 182.403 63.5243 182.481 63.4542 182.558C63.385 182.635 63.3193 182.699 63.2562 182.752C63.2039 182.797 63.1204 182.872 63.005 182.98C62.8896 183.088 62.7787 183.204 62.6713 183.331C62.5639 183.459 62.4858 183.593 62.4352 183.734C62.3846 183.876 62.4005 183.993 62.4804 184.086L66.8185 189.151Z" fill="white"/>
<path d="M89.0537 207.614L104.855 213.511L99.4536 197.579L89.0537 207.614Z" fill="#FB4142"/>
<path d="M93.4454 167.346L93.2394 180.025L80.5183 179.819C77.4834 179.767 75.0609 177.274 75.1071 174.248C75.1319 172.737 75.7666 171.374 76.7786 170.398C77.7896 169.422 79.1771 168.833 80.6967 168.854L82.417 168.882L82.4445 167.167C82.4721 165.653 83.1076 164.29 84.1196 163.314C85.1306 162.339 86.518 161.749 88.0342 161.774C91.0727 161.825 93.4942 164.318 93.4454 167.346Z" fill="white"/>
<path d="M178.279 173.727C178.279 173.727 179.482 195.626 213.759 185.185C251.505 173.688 324.391 134.231 362.792 158.822" stroke="#EC4557" stroke-width="0.412816" stroke-miterlimit="10"/>
<path d="M191.008 164.76L163.07 181.672C158.167 184.64 151.778 183.085 148.8 178.198L136.481 157.984C133.502 153.098 135.063 146.729 139.966 143.761L167.906 126.85C172.808 123.881 179.198 125.437 182.176 130.324L194.495 150.538C197.471 155.425 195.911 161.792 191.008 164.76Z" fill="#FB494A"/>
<path d="M172.037 176.244L183.436 183.713L182.04 170.189L172.037 176.244Z" fill="#FB494A"/>
<path d="M174.243 149.25L170.855 163.073L156.986 159.696C153.678 158.886 151.65 155.558 152.455 152.259C152.859 150.612 153.894 149.278 155.244 148.46C156.594 147.643 158.259 147.343 159.916 147.742L161.792 148.198L162.25 146.329C162.658 144.679 163.693 143.345 165.044 142.528C166.394 141.71 168.059 141.41 169.712 141.812C173.024 142.62 175.052 145.949 174.243 149.25Z" fill="white"/>
<path d="M39.3828 262.847C39.3828 262.847 39.6882 305.049 109.817 277.278C179.946 249.506 323.874 134.831 362.791 158.826" stroke="#3D9BFB" stroke-width="0.412816" stroke-miterlimit="10"/>
<path d="M52.0265 263.812L31.2214 281.794C26.8878 285.54 20.3271 285.074 16.5687 280.755L3.82981 266.115C0.0714325 261.796 0.538348 255.257 4.87193 251.512L25.677 233.53C30.0106 229.784 36.5714 230.25 40.3289 234.569L53.0677 249.209C56.827 253.529 56.3601 260.067 52.0265 263.812Z" fill="#3D76FB"/>
<path d="M37.6289 276.257L48.9191 281.189L45.6188 269.352L37.6289 276.257Z" fill="#3D76FB"/>
<path d="M21.5707 259.401L31.0598 270.306C31.0598 270.306 42.153 261.177 41.9275 259.414C41.6648 257.353 40.0235 257.373 40.0235 257.373C40.0235 257.373 41.2831 255.522 40.4132 254.303C39.5441 253.084 38.1798 253.056 38.1798 253.056C38.1798 253.056 39.5974 251.386 38.565 250.053C37.5327 248.72 35.6322 249.029 35.6322 249.029C35.6322 249.029 36.2003 247.33 34.3815 246.077C32.3327 244.667 26.207 251.39 26.207 251.39C26.207 251.39 19.7501 244.702 17.0028 247.776C16.8962 248.313 21.6044 251.745 22.0411 253.273C22.4797 254.8 21.5707 259.401 21.5707 259.401Z" fill="white"/>
<path d="M20.108 260.484L16.7227 263.41L26.3068 274.425L29.6922 271.498L20.108 260.484Z" fill="white"/>
<path d="M235.582 93.7637C235.582 93.7637 234.082 116.855 257.216 120.297C268.792 122.018 341.489 108.197 361.66 154.261" stroke="#3D9BFB" stroke-width="0.412816" stroke-miterlimit="10"/>
<path d="M247.453 85.7306L220.709 92.2756C215.138 93.6389 209.513 90.2434 208.145 84.6911L203.508 65.8719C202.14 60.3195 205.547 54.7132 211.118 53.3499L237.862 46.805C243.433 45.4417 249.058 48.8371 250.426 54.3894L255.063 73.2087C256.431 78.761 253.024 84.3673 247.453 85.7306Z" fill="#3D9BFB"/>
<path d="M228.946 90.2576L236.737 99.7786L239.217 87.7441L228.946 90.2576Z" fill="#3D9BFB"/>
<path d="M222.367 67.9604L225.821 81.9793C225.821 81.9793 239.871 78.897 240.477 77.2258C241.187 75.2715 239.718 74.5434 239.718 74.5434C239.718 74.5434 241.685 73.4685 241.47 71.9884C241.254 70.5084 240.053 69.8625 240.053 69.8625C240.053 69.8625 242.079 69.0203 241.77 67.365C241.461 65.7098 239.629 65.1197 239.629 65.1197C239.629 65.1197 240.911 63.8661 239.866 61.9242C238.688 59.7381 230.16 62.9362 230.16 62.9362C230.16 62.9362 227.474 54.0495 223.623 55.5358C223.282 55.9657 225.902 61.1598 225.591 62.7186C225.281 64.281 222.367 67.9604 222.367 67.9604Z" fill="white"/>
<path d="M220.575 68.2484L216.223 69.3135L219.711 83.4725L224.063 82.4074L220.575 68.2484Z" fill="white"/>
<path opacity="0.9" d="M356.37 192.568C348.175 218.166 316.202 214.152 316.202 214.152L316.995 209.241L318.95 207.514V206.207L356.37 192.568Z" fill="#43274D"/>
<path d="M336.982 154.673C336.982 154.673 321.828 183.337 327.897 185.701C333.966 188.065 352.454 167.685 352.454 167.685L364.453 182.811C364.453 182.811 346.104 210.248 317.08 208.758" fill="#FFDD79"/>
<path d="M336.982 154.673C336.982 154.673 321.828 183.337 327.897 185.701C333.966 188.065 352.454 167.685 352.454 167.685L364.453 182.811C364.453 182.811 346.104 210.248 317.08 208.758" stroke="#FFC079" stroke-width="0.825632" stroke-miterlimit="10"/>
<path d="M351.029 166.372C351.029 166.372 362.255 182.978 365.101 184.176C366.685 184.842 369.611 183.922 369.489 181.556C369.367 179.189 357.204 163.573 355.339 162.578C352.876 161.263 350.766 162.365 351.029 166.372Z" fill="#FFC079"/>
<path d="M370.367 171.182C369.203 172.91 367.834 174.464 366.24 175.714L359.102 166.477C359.102 166.477 359.118 165.556 359.176 164.19C359.184 164.182 359.176 164.182 359.176 164.182C359.349 160.226 359.894 152.502 361.504 152.247C363.591 151.918 362.857 158.276 362.8 158.794C363.014 158.136 366.389 147.6 367.941 147.674C369.36 147.731 368.469 151.663 367.818 154.024C368 153.538 369.477 149.607 370.046 147.427C370.739 144.803 372.101 145.025 372.225 146.859C372.357 148.693 371.548 151.843 371.301 152.773C371.672 151.482 373.356 145.954 374.544 147.065C375.799 148.233 373.859 154.114 373.571 154.97C373.884 154.271 375.783 149.953 376.385 150.923C376.92 151.786 375.756 163.244 370.367 171.182Z" fill="#FEB3B0"/>
<path opacity="0.7" d="M370.367 171.182C369.203 172.91 367.834 174.464 366.24 175.714L359.102 166.477C359.102 166.477 359.118 165.556 359.176 164.19C359.885 164.947 365.11 170.359 370.367 171.182Z" fill="#43274D"/>
<defs>
<filter id="filter0_b_7087_278" x="36.3548" y="-67.2721" width="548.046" height="471.204" filterUnits="userSpaceOnUse" color-interpolation-filters="sRGB">
<feFlood flood-opacity="0" result="BackgroundImageFix"/>
<feGaussianBlur in="BackgroundImageFix" stdDeviation="35.2005"/>
<feComposite in2="SourceAlpha" operator="in" result="effect1_backgroundBlur_7087_278"/>
<feBlend mode="normal" in="SourceGraphic" in2="effect1_backgroundBlur_7087_278" result="shape"/>
</filter>
</defs>
</svg>
