<svg width="210" height="32" viewBox="0 0 210 32" fill="none" xmlns="http://www.w3.org/2000/svg">
<path d="M209.402 13.1893C209.908 12.9672 210.138 12.3772 209.916 11.8716L206.295 3.63176C206.073 3.12613 205.483 2.89632 204.978 3.11847C204.472 3.34062 204.242 3.93061 204.464 4.43624L207.682 11.7605L200.358 14.9784C199.852 15.2006 199.622 15.7906 199.845 16.2962C200.067 16.8019 200.657 17.0317 201.162 16.8095L209.402 13.1893ZM3.68762 30.9322L4.60829 30.5418L3.82761 28.7005L2.90694 29.0908L3.68762 30.9322ZM12.3816 25.2837L11.4474 25.6405L12.161 27.5088L13.0952 27.1521L12.3816 25.2837ZM17.8417 25.3811L18.7812 25.0386L18.0961 23.1595L17.1566 23.5021L17.8417 25.3811ZM26.7722 20.1477L25.8236 20.4644L26.4569 22.3614L27.4055 22.0448L26.7722 20.1477ZM32.2228 20.4711L33.1753 20.1667L32.5664 18.2616L31.6138 18.5661L32.2228 20.4711ZM41.3672 15.5815L40.4074 15.8624L40.9691 17.7819L41.9289 17.501L41.3672 15.5815ZM46.8115 16.1042L47.7746 15.8349L47.2361 13.9088L46.2731 14.178L46.8115 16.1042ZM56.098 11.5579L55.1287 11.804L55.6209 13.7425L56.5901 13.4964L56.098 11.5579ZM61.5151 12.2776L62.4872 12.0433L62.0185 10.099L61.0464 10.3333L61.5151 12.2776ZM70.979 8.06696L70.0014 8.27738L70.4223 10.2326L71.3999 10.0222L70.979 8.06696ZM76.3588 8.98722L77.339 8.78908L76.9427 6.82873L75.9625 7.02688L76.3588 8.98722ZM85.9814 5.13529L84.9965 5.30798L85.3418 7.27793L86.3268 7.10524L85.9814 5.13529ZM91.3184 6.26439L92.3056 6.10491L91.9866 4.13051L90.9994 4.28999L91.3184 6.26439ZM101.087 2.80342L100.096 2.93522L100.36 4.91778L101.351 4.78598L101.087 2.80342ZM106.373 4.15533L107.366 4.03803L107.131 2.05184L106.138 2.16914L106.373 4.15533ZM116.28 1.12743L115.284 1.21411L115.457 3.20658L116.453 3.1199L116.28 1.12743ZM121.501 2.72171L122.499 2.65122L122.358 0.656194L121.36 0.726689L121.501 2.72171ZM131.542 0.180736L130.543 0.216856L130.615 2.21555L131.614 2.17943L131.542 0.180736ZM136.675 2.04253L137.675 2.02469L137.639 0.0250098L136.639 0.0428458L136.675 2.04253ZM146.84 0.0570994L145.84 0.0358995L145.798 2.03545L146.798 2.05665L146.84 0.0570994ZM151.854 2.21625L152.853 2.25831L152.937 0.260077L151.938 0.218023L151.854 2.21625ZM162.125 0.871981L161.129 0.785234L160.955 2.77769L161.951 2.86444L162.125 0.871981ZM166.98 3.36278L167.974 3.47344L168.195 1.48573L167.201 1.37506L166.98 3.36278ZM177.323 2.76419L176.336 2.60218L176.012 4.57575L176.999 4.73777L177.323 2.76419ZM181.969 5.62455L182.951 5.81402L183.33 3.85025L182.348 3.66078L181.969 5.62455ZM192.326 5.89444L191.357 5.64622L190.861 7.58362L191.83 7.83185L192.326 5.89444ZM196.697 9.16273L197.657 9.44221L198.216 7.52191L197.256 7.24243L196.697 9.16273ZM206.974 10.437L206.036 10.0912L205.345 11.9679L206.283 12.3136L206.974 10.437ZM1.40031 31.9164C2.14301 31.5919 2.90562 31.2637 3.68762 30.9322L2.90694 29.0908C2.11846 29.4251 1.3492 29.7562 0.599686 30.0836L1.40031 31.9164ZM13.0952 27.1521C14.6298 26.566 16.2128 25.975 17.8417 25.3811L17.1566 23.5021C15.5183 24.0994 13.9258 24.6939 12.3816 25.2837L13.0952 27.1521ZM27.4055 22.0448C28.9801 21.5192 30.5864 20.9942 32.2228 20.4711L31.6138 18.5661C29.9694 19.0917 28.3549 19.6194 26.7722 20.1477L27.4055 22.0448ZM41.9289 17.501C43.5344 17.0312 45.1624 16.5652 46.8115 16.1042L46.2731 14.178C44.6161 14.6413 42.9803 15.1095 41.3672 15.5815L41.9289 17.501ZM56.5901 13.4964C58.2157 13.0837 59.8577 12.6771 61.5151 12.2776L61.0464 10.3333C59.3811 10.7347 57.7313 11.1432 56.098 11.5579L56.5901 13.4964ZM71.3999 10.0222C73.0412 9.6689 74.6945 9.32366 76.3588 8.98722L75.9625 7.02688C74.2899 7.365 72.6284 7.71195 70.979 8.06696L71.3999 10.0222ZM86.3268 7.10524C87.9825 6.81497 89.6466 6.53445 91.3184 6.26439L90.9994 4.28999C89.3187 4.5615 87.6457 4.8435 85.9814 5.13529L86.3268 7.10524ZM101.351 4.78598C103.02 4.56409 104.694 4.35365 106.373 4.15533L106.138 2.16914C104.449 2.36863 102.765 2.58028 101.087 2.80342L101.351 4.78598ZM116.453 3.1199C118.133 2.97374 119.816 2.84079 121.501 2.72171L121.36 0.726689C119.664 0.846542 117.971 0.980343 116.28 1.12743L116.453 3.1199ZM131.614 2.17943C133.301 2.11846 134.988 2.07261 136.675 2.04253L136.639 0.0428458C134.94 0.0731549 133.241 0.119338 131.542 0.180736L131.614 2.17943ZM146.798 2.05665C148.486 2.09244 150.171 2.14543 151.854 2.21625L151.938 0.218023C150.241 0.146599 148.542 0.0931811 146.84 0.0570994L146.798 2.05665ZM161.951 2.86444C163.633 3.01085 165.309 3.17674 166.98 3.36278L167.201 1.37506C165.514 1.18721 163.822 1.01975 162.125 0.871981L161.951 2.86444ZM176.999 4.73777C178.664 5.0111 180.321 5.30647 181.969 5.62455L182.348 3.66078C180.681 3.33909 179.006 3.04047 177.323 2.76419L176.999 4.73777ZM191.83 7.83185C193.463 8.25043 195.086 8.69382 196.697 9.16273L197.256 7.24243C195.624 6.76734 193.98 6.31827 192.326 5.89444L191.83 7.83185ZM206.283 12.3136C207.071 12.6041 207.856 12.9013 208.637 13.2056L209.363 11.342C208.57 11.0332 207.774 10.7316 206.974 10.437L206.283 12.3136Z" fill="white"/>
</svg>
