<svg width="209" height="39" viewBox="0 0 209 39" fill="none" xmlns="http://www.w3.org/2000/svg">
<path d="M208.879 24.0036C209.142 23.518 208.962 22.9111 208.476 22.6479L200.564 18.3597C200.078 18.0965 199.471 18.2768 199.208 18.7624C198.945 19.2479 199.125 19.8549 199.611 20.118L206.644 23.9298L202.833 30.9633C202.569 31.4489 202.75 32.0559 203.235 32.319C203.721 32.5822 204.328 32.4018 204.591 31.9163L208.879 24.0036ZM2.11491 3.54649L2.83458 4.2408L4.22321 2.80145L3.50353 2.10714L2.11491 3.54649ZM11.3424 8.63041L10.5348 8.04061L9.35521 9.6557L10.1628 10.2455L11.3424 8.63041ZM14.4519 13.2074L15.2889 13.7547L16.3834 12.0808L15.5464 11.5335L14.4519 13.2074ZM24.3604 16.7457L23.4789 16.2734L22.5344 18.0363L23.4158 18.5086L24.3604 16.7457ZM28.0547 20.8796L28.9536 21.3178L29.83 19.52L28.9311 19.0818L28.0547 20.8796ZM38.3147 23.2518L37.3875 22.877L36.638 24.7313L37.5651 25.106L38.3147 23.2518ZM42.4168 26.9768L43.3555 27.3217L44.0453 25.4445L43.1067 25.0995L42.4168 26.9768ZM52.8581 28.3508L51.9005 28.0626L51.3241 29.9778L52.2817 30.2659L52.8581 28.3508ZM57.2868 31.6951L58.2521 31.9562L58.7742 30.0255L57.8089 29.7645L57.2868 31.6951ZM67.8085 32.1809L66.8306 31.9717L66.4123 33.9275L67.3902 34.1367L67.8085 32.1809ZM72.4719 35.1559L73.4548 35.3402L73.8234 33.3745L72.8405 33.1902L72.4719 35.1559ZM83.0166 34.8405L82.0259 34.7043L81.7534 36.6856L82.7441 36.8219L83.0166 34.8405ZM87.8859 37.4683L88.8795 37.5816L89.1061 35.5945L88.1125 35.4812L87.8859 37.4683ZM98.3651 36.4173L97.3674 36.3484L97.2295 38.3436L98.2272 38.4126L98.3651 36.4173ZM103.411 38.7149L104.41 38.7625L104.505 36.7648L103.506 36.7172L103.411 38.7149ZM113.802 36.9944L112.802 36.9878L112.789 38.9878L113.789 38.9944L113.802 36.9944ZM118.968 38.9772L119.968 38.9641L119.942 36.9643L118.942 36.9774L118.968 38.9772ZM129.258 36.6442L128.259 36.6953L128.362 38.6927L129.36 38.6416L129.258 36.6442ZM134.507 38.3311L135.505 38.2619L135.366 36.2667L134.369 36.3359L134.507 38.3311ZM144.637 35.4403L143.643 35.5445L143.851 37.5336L144.846 37.4294L144.637 35.4403ZM150.003 36.8445L150.995 36.7235L150.753 34.7382L149.76 34.8592L150.003 36.8445ZM159.963 33.4446L158.975 33.5979L159.281 35.5742L160.269 35.4209L159.963 33.4446ZM165.403 34.5829L166.388 34.414L166.05 32.4427L165.065 32.6116L165.403 34.5829ZM175.2 30.7156L174.22 30.9142L174.617 32.8743L175.597 32.6757L175.2 30.7156ZM180.648 31.6139L181.625 31.4011L181.199 29.4469L180.222 29.6597L180.648 31.6139ZM190.265 27.3229L189.294 27.5631L189.774 29.5045L190.745 29.2643L190.265 27.3229ZM195.784 27.9809L196.751 27.7275L196.244 25.7928L195.277 26.0462L195.784 27.9809ZM205.21 23.304L204.249 23.5826L204.807 25.5034L205.767 25.2249L205.21 23.304ZM0.272717 1.68634C0.849748 2.29779 1.46388 2.9184 2.11491 3.54649L3.50353 2.10714C2.87391 1.49971 2.28184 0.901306 1.72728 0.313662L0.272717 1.68634ZM10.1628 10.2455C11.5108 11.2301 12.9407 12.2193 14.4519 13.2074L15.5464 11.5335C14.0632 10.5637 12.6618 9.59407 11.3424 8.63041L10.1628 10.2455ZM23.4158 18.5086C24.9068 19.3074 26.4531 20.0988 28.0547 20.8796L28.9311 19.0818C27.3522 18.3121 25.8286 17.5324 24.3604 16.7457L23.4158 18.5086ZM37.5651 25.106C39.1406 25.7429 40.7579 26.3672 42.4168 26.9768L43.1067 25.0995C41.4676 24.4972 39.8703 23.8806 38.3147 23.2518L37.5651 25.106ZM52.2817 30.2659C53.9164 30.7579 55.5848 31.2348 57.2868 31.6951L57.8089 29.7645C56.1251 29.3091 54.4748 28.8373 52.8581 28.3508L52.2817 30.2659ZM67.3902 34.1367C69.0564 34.493 70.7503 34.8332 72.4719 35.1559L72.8405 33.1902C71.1355 32.8705 69.4581 32.5337 67.8085 32.1809L67.3902 34.1367ZM82.7441 36.8219C84.4345 37.0544 86.1484 37.2702 87.8859 37.4683L88.1125 35.4812C86.3903 35.2848 84.6917 35.071 83.0166 34.8405L82.7441 36.8219ZM98.2272 38.4126C99.9347 38.5306 101.663 38.6316 103.411 38.7149L103.506 36.7172C101.772 36.6345 100.058 36.5343 98.3651 36.4173L98.2272 38.4126ZM113.789 38.9944C115.497 39.0056 117.224 39.0001 118.968 38.9772L118.942 36.9774C117.211 37.0001 115.497 37.0056 113.802 36.9944L113.789 38.9944ZM129.36 38.6416C131.06 38.5546 132.776 38.4513 134.507 38.3311L134.369 36.3359C132.65 36.4552 130.946 36.5578 129.258 36.6442L129.36 38.6416ZM144.846 37.4294C146.551 37.2507 148.27 37.0559 150.003 36.8445L149.76 34.8592C148.039 35.0692 146.331 35.2627 144.637 35.4403L144.846 37.4294ZM160.269 35.4209C161.968 35.1574 163.679 34.8782 165.403 34.5829L165.065 32.6116C163.351 32.9051 161.651 33.1827 159.963 33.4446L160.269 35.4209ZM175.597 32.6757C177.27 32.3368 178.953 31.983 180.648 31.6139L180.222 29.6597C178.537 30.0268 176.863 30.3786 175.2 30.7156L175.597 32.6757ZM190.745 29.2643C192.414 28.8513 194.094 28.4235 195.784 27.9809L195.277 26.0462C193.596 26.4865 191.925 26.912 190.265 27.3229L190.745 29.2643ZM205.767 25.2249C206.604 24.9821 207.443 24.7357 208.285 24.4857L207.715 22.5685C206.878 22.8173 206.043 23.0625 205.21 23.304L205.767 25.2249Z" fill="white"/>
</svg>
