<svg width="25" height="24" viewBox="0 0 25 24" fill="none" xmlns="http://www.w3.org/2000/svg">
<path fill-rule="evenodd" clip-rule="evenodd" d="M11.7378 2.79885C11.1238 2.87985 10.3658 3.05385 9.28783 3.30285L8.05883 3.58685C7.14883 3.79685 6.52083 3.94285 6.04183 4.10685C5.57883 4.26585 5.31683 4.42185 5.11983 4.61985C4.92183 4.81685 4.76583 5.07885 4.60683 5.54185C4.44283 6.02085 4.29683 6.64785 4.08683 7.55885L3.80283 8.78685C3.55383 9.86585 3.37983 10.6239 3.29883 11.2379C3.21883 11.8359 3.23783 12.2409 3.34383 12.6089C3.44883 12.9769 3.64783 13.3299 4.03183 13.7949C4.42683 14.2729 4.97583 14.8239 5.75883 15.6069L7.58883 17.4369C8.94783 18.7959 9.91483 19.7609 10.7468 20.3949C11.5608 21.0169 12.1568 21.2499 12.7618 21.2499C13.3678 21.2499 13.9628 21.0169 14.7778 20.3949C15.6088 19.7609 16.5768 18.7949 17.9358 17.4359C19.2958 16.0759 20.2608 15.1089 20.8958 14.2779C21.5158 13.4629 21.7498 12.8679 21.7498 12.2619C21.7498 11.6569 21.5168 11.0619 20.8948 10.2469C20.2608 9.41485 19.2948 8.44685 17.9358 7.08785L16.1058 5.25785C15.3238 4.47585 14.7728 3.92685 14.2958 3.53185C13.8298 3.14785 13.4768 2.94885 13.1088 2.84385C12.7408 2.73785 12.3358 2.71985 11.7388 2.79885M11.5428 1.31185C12.2598 1.21685 12.8888 1.21985 13.5228 1.40185C14.1578 1.58385 14.6928 1.91485 15.2508 2.37485C15.7908 2.82085 16.3908 3.42085 17.1418 4.17185L19.0378 6.06785C20.3478 7.37785 21.3858 8.41585 22.0878 9.33785C22.8118 10.2849 23.2508 11.1969 23.2508 12.2619C23.2508 13.3279 22.8118 14.2399 22.0888 15.1869C21.3858 16.1089 20.3488 17.1469 19.0378 18.4569L18.9578 18.5369C17.6478 19.8469 16.6098 20.8849 15.6878 21.5869C14.7408 22.3109 13.8278 22.7499 12.7628 22.7499C11.6978 22.7499 10.7858 22.3109 9.83783 21.5879C8.91683 20.8849 7.87883 19.8479 6.56783 18.5369L4.67283 16.6399C3.92283 15.8899 3.32183 15.2889 2.87583 14.7499C2.41583 14.1909 2.08483 13.6559 1.90283 13.0219C1.72083 12.3869 1.71783 11.7579 1.81283 11.0409C1.90383 10.3469 2.09583 9.51885 2.33383 8.48485L2.63383 7.18185C2.83383 6.31885 2.99583 5.61485 3.18883 5.05385C3.39083 4.46685 3.64383 3.97385 4.05983 3.55785C4.47583 3.14185 4.96983 2.88785 5.55583 2.68785C6.11683 2.49385 6.82083 2.33185 7.68383 2.13285L8.98683 1.83285C10.0208 1.59285 10.8488 1.40285 11.5428 1.31085M9.98983 7.99485C9.75538 7.7604 9.43739 7.62869 9.10583 7.62869C8.77426 7.62869 8.45628 7.7604 8.22183 7.99485C7.98738 8.2293 7.85566 8.54729 7.85566 8.87885C7.85566 9.21042 7.98738 9.5284 8.22183 9.76285C8.33792 9.87894 8.47573 9.97103 8.62741 10.0339C8.77909 10.0967 8.94166 10.129 9.10583 10.129C9.27 10.129 9.43257 10.0967 9.58425 10.0339C9.73592 9.97103 9.87374 9.87894 9.98983 9.76285C10.1059 9.64676 10.198 9.50895 10.2608 9.35727C10.3237 9.20559 10.356 9.04303 10.356 8.87885C10.356 8.71468 10.3237 8.55211 10.2608 8.40044C10.198 8.24876 10.1059 8.11094 9.98983 7.99485ZM7.16183 6.93485C7.41656 6.67668 7.71985 6.47145 8.05422 6.33098C8.3886 6.1905 8.74746 6.11755 9.11015 6.11634C9.47283 6.11512 9.83217 6.18566 10.1675 6.3239C10.5028 6.46213 10.8074 6.66532 11.0639 6.92178C11.3204 7.17824 11.5236 7.48289 11.6618 7.8182C11.8 8.15351 11.8706 8.51285 11.8693 8.87554C11.8681 9.23822 11.7952 9.59708 11.6547 9.93146C11.5142 10.2658 11.309 10.5691 11.0508 10.8239C10.535 11.3397 9.83535 11.6295 9.10583 11.6295C8.37631 11.6295 7.67668 11.3397 7.16083 10.8239C6.64498 10.308 6.35518 9.60837 6.35518 8.87885C6.35518 8.14934 6.64498 7.4497 7.16083 6.93385M19.5498 10.9899C19.6903 11.1305 19.7692 11.3211 19.7692 11.5199C19.7692 11.7186 19.6903 11.9092 19.5498 12.0499L12.5708 19.0299C12.4287 19.1623 12.2406 19.2345 12.0463 19.231C11.852 19.2276 11.6666 19.1489 11.5292 19.0115C11.3918 18.8741 11.3131 18.6887 11.3097 18.4944C11.3062 18.3001 11.3783 18.112 11.5108 17.9699L18.4888 10.9899C18.5585 10.9202 18.6412 10.8649 18.7322 10.8271C18.8232 10.7894 18.9208 10.77 19.0193 10.77C19.1179 10.77 19.2154 10.7894 19.3065 10.8271C19.3975 10.8649 19.4802 10.9202 19.5498 10.9899Z" fill="white"/>
</svg>
