<svg width="25" height="24" viewBox="0 0 25 24" fill="none" xmlns="http://www.w3.org/2000/svg">
<path fill-rule="evenodd" clip-rule="evenodd" d="M8.50009 2.10059C5.24148 2.10059 2.59985 4.74221 2.59985 8.00083V16.0004C2.59985 19.259 5.24148 21.9007 8.50009 21.9007H16.4997C19.7583 21.9007 22.3999 19.259 22.3999 16.0004V8.00083C22.3999 4.74221 19.7583 2.10059 16.4997 2.10059H8.50009ZM4.39993 8.00083C4.39993 5.73637 6.23563 3.90066 8.50009 3.90066H16.4997C18.7641 3.90066 20.5999 5.73637 20.5999 8.00083V16.0004C20.5999 18.2649 18.7641 20.1006 16.4997 20.1006H8.50009C6.23563 20.1006 4.39993 18.2649 4.39993 16.0004V8.00083ZM13.4004 8.00062C13.4004 7.50355 12.9975 7.10059 12.5004 7.10059C12.0033 7.10059 11.6003 7.50355 11.6003 8.00062V11.1006H8.50038C8.0033 11.1006 7.60034 11.5035 7.60034 12.0006C7.60034 12.4977 8.0033 12.9007 8.50038 12.9007H11.6003V16.0006C11.6003 16.4977 12.0033 16.9007 12.5004 16.9007C12.9975 16.9007 13.4004 16.4977 13.4004 16.0006V12.9007H16.5004C16.9975 12.9007 17.4004 12.4977 17.4004 12.0006C17.4004 11.5035 16.9975 11.1006 16.5004 11.1006H13.4004V8.00062Z" fill="white"/>
</svg>
