<svg width="25" height="24" viewBox="0 0 25 24" fill="none" xmlns="http://www.w3.org/2000/svg">
<path fill-rule="evenodd" clip-rule="evenodd" d="M12.4998 2.69881C7.36355 2.69881 3.19979 6.86257 3.19979 11.9988C3.19979 14.6251 4.28837 16.997 6.03893 18.6882C6.5681 17.2917 7.91812 16.299 9.5 16.299H15.5C17.0818 16.299 18.4317 17.2916 18.961 18.6879C20.7113 16.9968 21.7998 14.6249 21.7998 11.9988C21.7998 6.86257 17.6361 2.69881 12.4998 2.69881ZM17.775 19.659C17.6107 18.55 16.6547 17.699 15.5 17.699H9.5C8.34519 17.699 7.38917 18.5501 7.22492 19.6592C8.72379 20.6933 10.5411 21.2988 12.4998 21.2988C14.4587 21.2988 16.2761 20.6932 17.775 19.659ZM1.7998 11.9988C1.7998 6.08938 6.59035 1.29883 12.4998 1.29883C18.4092 1.29883 23.1998 6.08938 23.1998 11.9988C23.1998 17.9083 18.4092 22.6988 12.4998 22.6988C6.59035 22.6988 1.7998 17.9083 1.7998 11.9988ZM12.5 6.69999C10.6775 6.69999 9.19999 8.17746 9.19999 10C9.19999 11.8225 10.6775 13.3 12.5 13.3C14.3225 13.3 15.8 11.8225 15.8 10C15.8 8.17746 14.3225 6.69999 12.5 6.69999ZM7.80001 10C7.80001 7.40427 9.90427 5.30001 12.5 5.30001C15.0957 5.30001 17.2 7.40427 17.2 10C17.2 12.5957 15.0957 14.7 12.5 14.7C9.90427 14.7 7.80001 12.5957 7.80001 10Z" fill="white"/>
</svg>
