<svg width="25" height="24" viewBox="0 0 25 24" fill="none" xmlns="http://www.w3.org/2000/svg">
<path d="M12.4995 1.25C18.4365 1.25 23.2495 6.063 23.2495 12C23.2495 17.937 18.4365 22.75 12.4995 22.75C11.6775 22.75 10.8775 22.658 10.1075 22.483C10.0114 22.4612 9.92062 22.4207 9.84021 22.3638C9.75981 22.3069 9.6914 22.2347 9.63888 22.1514C9.58637 22.068 9.55079 21.9752 9.53417 21.8781C9.51755 21.781 9.52021 21.6816 9.54201 21.5855C9.56381 21.4894 9.60432 21.3986 9.66122 21.3182C9.71812 21.2378 9.7903 21.1694 9.87364 21.1169C9.95698 21.0644 10.0499 21.0288 10.1469 21.0122C10.244 20.9955 10.3434 20.9982 10.4395 21.02C11.7939 21.3278 13.2002 21.3266 14.554 21.0166C15.9079 20.7066 17.1746 20.0957 18.2601 19.2292C19.3456 18.3628 20.222 17.263 20.8243 16.0115C21.4266 14.76 21.7394 13.3889 21.7394 12C21.7394 10.6111 21.4266 9.24002 20.8243 7.98852C20.222 6.73702 19.3456 5.63722 18.2601 4.77075C17.1746 3.90428 15.9079 3.29337 14.554 2.98336C13.2002 2.67335 11.7939 2.6722 10.4395 2.98C10.2455 3.02403 10.042 2.98918 9.87364 2.88313C9.70533 2.77708 9.58604 2.60851 9.54201 2.4145C9.49799 2.22049 9.53283 2.01695 9.63888 1.84863C9.74494 1.68032 9.91351 1.56103 10.1075 1.517C10.8775 1.342 11.6775 1.25 12.4995 1.25ZM3.63151 16.686C3.79981 16.5801 4.00327 16.5454 4.19716 16.5894C4.39106 16.6335 4.55952 16.7528 4.66551 16.921C5.40659 18.0975 6.402 19.0929 7.57851 19.834C7.6619 19.8865 7.73413 19.955 7.79107 20.0354C7.84801 20.1159 7.88855 20.2067 7.91037 20.3028C7.93219 20.3989 7.93487 20.4984 7.91825 20.5955C7.90163 20.6927 7.86604 20.7856 7.81351 20.869C7.76098 20.9524 7.69254 21.0246 7.6121 21.0816C7.53166 21.1385 7.44079 21.179 7.34468 21.2009C7.15058 21.2449 6.94692 21.2101 6.77851 21.104C5.41256 20.2432 4.2569 19.0872 3.39651 17.721C3.34392 17.6376 3.30828 17.5447 3.29163 17.4476C3.27497 17.3504 3.27764 17.2509 3.29946 17.1548C3.32129 17.0587 3.36185 16.9678 3.41882 16.8873C3.4758 16.8069 3.54807 16.7385 3.63151 16.686ZM3.47951 9.94C3.52354 9.74599 3.48869 9.54245 3.38264 9.37413C3.27659 9.20582 3.10802 9.08653 2.91401 9.0425C2.72001 8.99847 2.51646 9.03332 2.34814 9.13937C2.17983 9.24542 2.06054 9.41399 2.01651 9.608C1.84151 10.378 1.74951 11.178 1.74951 12C1.74951 12.822 1.84151 13.622 2.01651 14.393C2.06067 14.587 2.18009 14.7555 2.3485 14.8615C2.5169 14.9674 2.72051 15.0022 2.91451 14.958C3.10852 14.9138 3.27704 14.7944 3.38299 14.626C3.48895 14.4576 3.52367 14.254 3.47951 14.06C3.32618 13.3841 3.24903 12.6931 3.24951 12C3.24951 11.291 3.32951 10.602 3.47951 9.94ZM7.81351 3.132C7.91941 3.30029 7.95414 3.50375 7.91008 3.69765C7.86601 3.89155 7.74675 4.06001 7.57851 4.166C6.40191 4.90739 5.4065 5.90314 4.66551 7.08C4.55943 7.24841 4.39078 7.36778 4.19668 7.41186C4.00258 7.45593 3.79892 7.42109 3.63051 7.315C3.4621 7.20891 3.34273 7.04027 3.29866 6.84617C3.25459 6.65207 3.28943 6.44841 3.39551 6.28C4.25645 4.91356 5.41281 3.75754 6.77951 2.897C6.86288 2.84441 6.9558 2.80877 7.05296 2.79211C7.15011 2.77546 7.2496 2.77812 7.34573 2.79995C7.44185 2.82177 7.53273 2.86234 7.61317 2.91931C7.69361 2.97629 7.76103 3.04856 7.81351 3.132Z" fill="white"/>
<path fill-rule="evenodd" clip-rule="evenodd" d="M8.75 9.2132C8.75 7.7902 10.246 6.7232 11.575 7.5082L16.295 10.2952C17.568 11.0472 17.568 12.9532 16.295 13.7052L11.575 16.4912C10.246 17.2762 8.75 16.2092 8.75 14.7862V9.2132ZM10.46 8.8052C10.3928 8.84938 10.3382 8.91015 10.3014 8.98163C10.2646 9.05311 10.2469 9.13287 10.25 9.2132V14.7862C10.25 14.9852 10.346 15.1242 10.46 15.1952C10.57 15.2632 10.692 15.2712 10.812 15.2002L15.532 12.4132C15.6015 12.3697 15.6583 12.3086 15.6966 12.2361C15.7349 12.1635 15.7533 12.0822 15.75 12.0002C15.7535 11.9181 15.7352 11.8365 15.6969 11.7638C15.6586 11.6911 15.6017 11.6298 15.532 11.5862L10.812 8.8002C10.759 8.76669 10.6974 8.74932 10.6348 8.75021C10.5721 8.75109 10.511 8.7702 10.459 8.8052" fill="white"/>
</svg>
